<?xml version="1.0" encoding="utf-8"?>
<!-- Generator: Adobe Illustrator 16.0.0, SVG Export Plug-In . SVG Version: 6.00 Build 0)  -->
<!DOCTYPE svg PUBLIC "-//W3C//DTD SVG 1.1//EN" "http://www.w3.org/Graphics/SVG/1.1/DTD/svg11.dtd">
<svg version="1.1" id="Layer_1" xmlns="http://www.w3.org/2000/svg" xmlns:xlink="http://www.w3.org/1999/xlink" x="0px" y="0px"
	 width="1176.117px" height="609px" viewBox="0 0 1176.117 609" enable-background="new 0 0 1176.117 609" xml:space="preserve">
<g id="lines">
	<line fill="#112230" x1="-1252.997" y1="321.991" x2="-1229.701" y2="307.764"/>
	<line fill="#112230" x1="-1277.468" y1="336.935" x2="-1252.997" y2="321.991"/>
	<line fill="#112230" x1="-1579.035" y1="521.098" x2="-1277.468" y2="336.935"/>
	<line fill="#112230" x1="-1008.188" y1="250.411" x2="-658.854" y2="37.078"/>
	<line fill="#112230" x1="-853.979" y1="251.412" x2="-504.645" y2="38.077"/>
	<line fill="#112230" x1="-1339.149" y1="509.67" x2="-989.815" y2="296.338"/>
	<line fill="#112230" x1="-1255.085" y1="301.016" x2="-905.751" y2="87.683"/>
	<line fill="#112230" x1="-1087.079" y1="249.814" x2="-829.362" y2="92.431"/>
	<path fill="#112230" d="M-1087.079,249.814"/>
	<path fill="#112230" d="M-1138.59,281.272"/>
	<line fill="#112230" x1="-1178.696" y1="305.764" x2="-1138.59" y2="281.272"/>
	<line fill="#112230" x1="-1602.419" y1="491.63" x2="-1253.085" y2="278.298"/>
	<line fill="#112230" x1="-1492.084" y1="514.349" x2="-1142.75" y2="301.016"/>
	<line fill="#112230" x1="-1140.75" y1="263.199" x2="-791.416" y2="49.867"/>
	<line fill="#112230" x1="-939.508" y1="225.717" x2="-590.174" y2="12.385"/>
	<line fill="#112230" x1="-1114.174" y1="460.445" x2="-764.84" y2="247.113"/>
</g>
<g display="none">
	<path display="inline" fill="#D3EDF3" d="M-946.012,210.617l46.97-28.31c0,0,39.122-18.692,35.197,24.421c-3.925,43.113,0,0,0,0
		s6.55-80.75-79.25,0.805"/>
	<path display="inline" fill="#D3EDF3" d="M-983.892,246.651c-0.436,2.404-8.473,9.037-18.641,6.131
		c-12.695-3.627-8.474-27.597-11.459-33.084c-1.456-2.674-6.416-7.121-13.013-1.13c-1.827,1.66-2.595,3.257-3.329,4.761
		l-0.254,29.928l-8.871-0.055v-37l9.113-5.507l0.012,8.12c0.787-1.204,3.957-4.448,5.932-5.736
		c4.297-2.804,8.826-2.447,10.087-2.259c1.261,0.192,3.93,0.766,5.567,2.017c3.067,2.341,5.568,5.488,6.215,13.314
		c0.439,5.323,0.88,19.255,5.244,21.949C-991.228,251.841-983.892,246.651-983.892,246.651z"/>
	<path display="inline" fill="#D3EDF3" d="M-941.644,248.001c-3.936-2.777-3.686-9.137-3.8-14.902c0,0,0-17.305,0-20.219v-2.631
		l-8.575,5.545c-3.707-3.164-8.531-5.086-13.784-5.086c-11.729,0-21.231,9.504-21.231,21.231c0,11.739,9.503,21.243,21.231,21.243
		c5.765,0,11.007-2.297,14.829-6.047c0.951,2.758,2.685,4.855,5.849,5.754c10.62,3.039,19.018-3.895,19.467-6.402
		C-927.658,246.487-935.564,252.294-941.644,248.001z M-962.78,249.204c-8.949,0-16.207-7.26-16.207-16.209
		c0-11.028,7.258-16.218,16.207-16.218c3.228,0,6.225,0.939,8.752,2.568l-0.053,14.1c0,4.5-0.146,9.054,0.805,12.677
		C-955.95,248.065-959.229,249.204-962.78,249.204z"/>
	<path display="inline" fill="#D3EDF3" d="M-947.95,211.821"/>
	<path display="inline" fill="#D3EDF3" d="M-892.948,230.31"/>
	<line display="inline" fill="#D3EDF3" x1="-896.485" y1="250.644" x2="-886.191" y2="250.644"/>
	<path display="inline" fill="#D3EDF3" d="M-1031.499,303.067c-3.941-2.781-3.689-9.148-3.805-14.918c0,0,0-17.322,0-20.238v-2.369
		l-8.583,5.285c-3.711-3.168-8.54-5.092-13.799-5.092c-11.739,0-21.253,9.514-21.253,21.254c0,11.75,9.514,21.262,21.253,21.262
		c5.771,0,11.019-2.299,14.845-6.053c0.951,2.762,2.687,4.861,5.854,5.762c10.632,3.041,19.037-3.9,19.486-6.408
		C-1017.501,301.551-1025.415,307.364-1031.499,303.067z M-1052.657,304.268c-8.959,0-16.225-7.266-16.225-16.225
		c0-8.969,7.266-16.234,16.225-16.234c3.23,0,6.23,0.941,8.76,2.572l-0.052,14.113c0,4.504-0.146,9.063,0.805,12.689
		C-1045.82,303.129-1049.103,304.268-1052.657,304.268z"/>
	<path display="inline" fill="#D3EDF3" d="M-860.395,247.468c-3.921-2.766-3.671-9.098-3.785-14.836c0,0,0-17.228,0-20.129v-2.619
		l-8.536,5.521c-3.69-3.15-8.494-5.064-13.725-5.064c-11.675,0-21.137,9.463-21.137,21.138c0,11.686,9.462,21.147,21.137,21.147
		c5.74,0,10.96-2.287,14.765-6.02c0.946,2.746,2.672,4.834,5.822,5.729c10.574,3.025,18.933-3.877,19.38-6.373
		C-846.474,245.96-854.345,251.741-860.395,247.468z M-881.438,248.663c-8.91,0-16.136-7.227-16.136-16.136
		c0-8.92,7.226-16.146,16.136-16.146c3.213,0,6.196,0.935,8.713,2.558l-0.052,14.035c0,4.482-0.146,9.015,0.8,12.623
		C-874.639,247.53-877.903,248.663-881.438,248.663z"/>
	<path display="inline" fill="#D3EDF3" d="M-706.595,248.075c-3.94-2.781-3.689-9.146-3.805-14.917c0,0,0-17.321,0-20.238v-2.634
		l-8.582,5.551c-3.711-3.168-8.541-5.091-13.799-5.091c-11.739,0-21.252,9.514-21.252,21.252c0,11.75,9.513,21.263,21.252,21.263
		c5.771,0,11.018-2.301,14.844-6.053c0.951,2.76,2.687,4.861,5.854,5.76c10.631,3.041,19.037-3.9,19.486-6.408
		C-692.597,246.56-700.511,252.372-706.595,248.075z M-727.752,249.278c-8.959,0-16.225-7.266-16.225-16.225
		c0-8.968,7.266-16.233,16.225-16.233c3.229,0,6.23,0.939,8.76,2.571l-0.053,14.112c0,4.505-0.146,9.062,0.806,12.691
		C-720.915,248.138-724.198,249.278-727.752,249.278z"/>
	<path display="inline" fill="#D3EDF3" d="M-933.066,183.311l10.546-6.551c0,0-0.289,41.147,0.085,48.991
		c0.28,5.882-0.08,17.759,6.245,21.949c5.937,3.934,13.396-1.449,13.396-1.449c-0.436,2.404-8.543,9.268-18.642,6.131
		c-13.909-4.32-11.214-27.403-11.001-36.195C-932.229,207.64-933.066,183.311-933.066,183.311z"/>
	<path display="inline" fill="#D3EDF3" d="M-749.32,246.347c-0.436,2.406-8.473,9.037-18.641,6.133
		c-12.695-3.627-8.474-27.598-11.459-33.085c-1.456-2.674-6.416-7.121-13.013-1.13c-1.827,1.66-2.595,3.257-3.329,4.761
		l-0.254,30.037l-9.329,0.141v-63.02l9.358-5.567l0.225,33.897c0.787-1.204,3.957-4.448,5.932-5.736
		c4.297-2.804,8.826-2.447,10.087-2.259c1.261,0.192,3.93,0.766,5.567,2.017c3.067,2.341,5.568,5.488,6.215,13.314
		c0.439,5.323,0.88,19.256,5.244,21.95C-756.656,251.536-749.32,246.347-749.32,246.347z"/>
	<path display="inline" fill="#D3EDF3" d="M-1113.696,302.85c-3.771-2.66-3.53-8.75-3.641-14.27c0,0,0-16.57,0-19.359v-2.52
		l-0.008-24.64l-8.25,5l0.048,24.949c-3.55-3.029-8.17-4.869-13.2-4.869c-11.229,0-20.33,9.1-20.33,20.33
		c0,11.24,9.101,20.34,20.33,20.34c5.521,0,10.541-2.199,14.2-5.791c0.91,2.641,2.57,4.65,5.601,5.512
		c10.17,2.908,18.209-3.73,18.64-6.131C-1100.307,301.401-1107.877,306.961-1113.696,302.85z M-1133.937,304
		c-8.57,0-15.52-6.949-15.52-15.52c0-8.58,6.949-15.529,15.52-15.529c3.09,0,5.96,0.898,8.38,2.459l-0.05,13.5
		c0,4.311-0.141,8.67,0.77,12.141C-1127.396,302.911-1130.536,304-1133.937,304z"/>
	<path display="inline" fill="#D3EDF3" d="M-1093.718,271.471c0,0,0.172,1.834,0.178,9.338c0.005,5.889-0.08,17.76,6.246,21.949
		c5.936,3.934,13.396-1.449,13.396-1.449c-0.435,2.404-8.542,9.268-18.642,6.131c-13.908-4.32-11-29.879-11-29.879
		L-1093.718,271.471z"/>
	<path display="inline" fill="#D3EDF3" d="M-909.94,288.067c-0.029,0-0.05-0.01-0.08-0.01v-1.16
		C-910.011,287.288-909.979,287.678-909.94,288.067z"/>
	<path display="inline" fill="#D3EDF3" d="M-909.94,288.067c-0.029,0-0.05-0.01-0.08-0.01v-1.16
		C-910.011,287.288-909.979,287.678-909.94,288.067z"/>
	<path display="inline" fill="#D3EDF3" d="M-898.04,280.948"/>
	<path display="inline" fill="#D3EDF3" d="M-930.059,299.051c-2.234,2.209-6.284,4.408-10.021,4.488
		c-8.276,0-14.212-6.213-15.127-14.234c-0.036,0-0.047-0.451,0,0c2.812,0.313,5.602,0.221,8.344-0.289
		c2.777-0.498,5.273-1.465,7.626-2.58c9.5-4.504,9.644-8.906,9.644-11.016c0-3.398-0.997-5.234-1.634-6.102
		c-0.636-0.879-1.575-1.666-2.812-2.35c-1.238-0.684-2.917-1.215-5.024-1.586c-1.909-0.336-3.737-0.463-5.473-0.383v-0.021
		c-11.851,0-21.445,9.605-21.445,21.457s9.595,21.457,21.445,21.457h0.566c13.239-0.914,17.465-10.52,17.441-13.229
		C-926.528,294.665-927.824,296.852-930.059,299.051z M-954.98,285.62c-0.559-7.813,6.569-12.051,8.726-13.02
		c2.051-0.922,5.494-0.969,6.752,0.289c0.868,0.867,2.314,3.473,0,7.234C-941.949,284.1-954.837,287.645-954.98,285.62z"/>
	<path display="inline" fill="#D3EDF3" d="M-1092.468,261.432c-0.078,0.891-0.321,1.707-0.729,2.449
		c-0.408,0.74-0.932,1.367-1.568,1.879c-0.639,0.512-1.359,0.896-2.159,1.156s-1.646,0.352-2.535,0.273s-1.707-0.314-2.45-0.711
		c-0.743-0.393-1.379-0.896-1.904-1.51c-0.527-0.613-0.92-1.32-1.18-2.121s-0.351-1.646-0.272-2.537
		c0.077-0.889,0.313-1.705,0.709-2.447c0.394-0.744,0.905-1.384,1.532-1.923c0.627-0.537,1.342-0.943,2.145-1.217
		c0.801-0.271,1.646-0.369,2.537-0.291c0.889,0.076,1.705,0.32,2.447,0.729c0.742,0.406,1.383,0.932,1.92,1.57
		c0.537,0.641,0.941,1.363,1.215,2.164C-1092.487,259.698-1092.39,260.543-1092.468,261.432z"/>
	<path display="inline" fill="#D3EDF3" d="M-855.652,261.045l-0.361,48.488c0.011,2.68-1.173,14.387-7.445,21.855
		c-7.059,8.404-15.59,11.973-19.059,13.529c-7.193,3.229-15.275,2.816-17.375,2.625c-6.141-0.539-15.068-4.178-15.125-13.75
		c-0.082-13.625,25-27.58,34.5-30.25c0,0-30,14.693-28.125,29.75c0.959,7.707,12.751,8.781,14.75,8.75
		c0.785-0.012,3.744-0.111,8.558-2.342c2.387-1.107,8.142-4.617,10.972-7.516c4.353-4.457,6.471-9.893,7.5-17.393
		c0.834-6.068,0.551-12.9,0.551-12.9c-0.601,1-1.24,1.842-1.91,2.521c-0.66,0.689-1.33,1.25-2,1.68c-0.67,0.42-1.33,0.76-1.99,1
		c-0.66,0.25-1.301,0.439-1.939,0.57c-1.07,0.209-2.121,0.25-3.121,0.119c-1-0.141-1.92-0.49-2.76-1.049
		c-0.83-0.561-1.561-1.342-2.18-2.342c-0.61-1-1.08-2.26-1.391-3.779c-0.129-0.66-0.229-1.391-0.299-2.189
		c-0.061-0.811-0.101-1.68-0.091-2.641l0.181-17.486l10.369-6.377l-0.189,23.184c-0.01,0.641,0.039,1.26,0.17,1.869
		c0.08,0.42,0.199,0.82,0.34,1.182c0.15,0.359,0.34,0.67,0.561,0.93c0.219,0.26,0.489,0.449,0.789,0.57
		c0.311,0.119,0.67,0.139,1.09,0.049c0.66-0.129,1.24-0.41,1.761-0.82c0.51-0.41,0.95-0.92,1.31-1.549
		c0.37-0.621,0.65-1.33,0.87-2.131c0.21-0.799,0.38-1.65,0.49-2.549l0.229-25.24L-855.652,261.045z"/>
	<g display="inline">
		<path fill="#D3EDF3" d="M-809.308,236.954c0.487,1.004,0.843,3.393,0.855,4.598c0.014,1.623-0.267,3.643-1.305,5.033
			c-1.053,1.381-2.499,2.574-4.366,3.594c-1.855,1.008-4.069,1.807-6.615,2.396c-2.562,0.592-5.344,0.893-8.349,0.916
			c-2.536,0.014-4.812-0.172-6.865-0.566c-2.04-0.395-3.783-0.975-5.23-1.717c-1.459-0.74-2.585-1.633-3.377-2.699
			c-0.804-1.055-1.212-2.236-1.224-3.533c0-0.857,0.149-1.656,0.507-2.363c1.887-3.74,6.308-3.615,7.334-3.582
			c2.745,0.096,6.069,2.773,3.71,5.539c-0.755,0.887-2.871,0.521-3.181,1.762c-0.335,1.287,0.361,2.943,2.339,4.184
			c1.2,0.74,2.992,0.949,5.06,0.938c1.248-0.012,5.058-0.219,6.962-2.572c0.569-0.707,1.436-2.467,1.372-4.635
			c-0.022-1.367-0.677-3.879-1.689-5.084c-1.016-1.193-2.967-2.767-6.364-4.032c-3.376-1.255-8.79-1.722-11.4-3.804
			c-4.368-3.486-4.575-7.554-4.488-9.293c0.082-1.62,0.494-3.129,1.532-4.508c1.042-1.379,2.5-2.572,4.355-3.592
			c1.866-1.02,4.08-1.82,6.628-2.41c2.56-0.579,5.343-0.893,8.349-0.904c2.535-0.022,4.811,0.163,6.853,0.568
			c2.039,0.395,3.795,0.962,5.241,1.703c1.462,0.742,2.586,1.645,3.378,2.699c0.804,1.055,1.212,2.238,1.212,3.547
			c0.013,0.856-0.161,1.645-0.508,2.352c-0.333,0.719-0.814,1.332-1.422,1.854c-0.605,0.51-1.348,0.916-2.225,1.195
			c-0.879,0.289-2.647,0.497-3.686,0.543c-1.544,0.06-4.063-0.346-4.943-1.525c-0.684-0.917-0.807-3.326,1.159-4.344
			c1.469-0.762,2.898-0.137,3.208-1.377c0.321-1.287-0.315-3.009-2.281-4.236c-1.201-0.754-2.992-0.951-5.059-0.938
			c-1.25,0-5.07,0.207-6.964,2.571c-0.569,0.706-1.433,2.456-1.384,4.635c0.035,1.367,0.297,2.919,1.313,4.111
			c1.012,1.193,5.65,1.926,9.001,3.271C-819.86,228.046-812.937,229.457-809.308,236.954z"/>
	</g>
	<path display="inline" fill="#D3EDF3" d="M-890.866,299.192c-2.234,2.209-6.283,4.406-10.021,4.488
		c-8.275,0-14.211-6.215-15.127-14.234c-0.035,0-0.047-0.451,0,0c2.813,0.313,5.602,0.219,8.344-0.291
		c2.777-0.496,5.273-1.465,7.627-2.58c9.5-4.504,9.643-8.904,9.643-11.014c0-3.4-0.996-5.234-1.633-6.102
		c-0.637-0.881-1.576-1.668-2.813-2.35c-1.238-0.684-2.916-1.217-5.023-1.586c-1.91-0.336-3.738-0.463-5.473-0.383v-0.021
		c-11.852,0-21.445,9.605-21.445,21.455c0,11.852,9.594,21.457,21.445,21.457h0.566c13.238-0.914,17.465-10.52,17.441-13.227
		C-887.335,294.805-888.632,296.991-890.866,299.192z M-915.788,285.76c-0.559-7.814,6.57-12.053,8.727-13.021
		c2.051-0.922,5.494-0.967,6.752,0.291c0.867,0.867,2.314,3.471,0,7.232C-902.757,284.239-915.644,287.784-915.788,285.76z"/>
	<path display="inline" fill="#D3EDF3" d="M-1014.51,212.974c0,0,7.5,1.126,8.5,10.916"/>
	<path display="inline" fill="#D3EDF3" d="M-961.251,301.032c-0.436,2.406-8.473,9.037-18.641,6.133
		c-12.695-3.627-8.474-27.598-11.459-33.086c-1.456-2.674-6.416-7.121-13.013-1.129c-1.827,1.66-2.595,3.256-3.329,4.76
		l-0.254,29.93l-8.871-0.057v-36.998l9.113-5.508l0.012,8.121c0.787-1.205,3.957-4.449,5.932-5.736
		c4.297-2.805,8.826-2.447,10.087-2.26c1.261,0.193,3.93,0.766,5.567,2.018c3.067,2.34,5.568,5.488,6.215,13.314
		c0.439,5.322,0.88,19.256,5.244,21.949C-968.587,306.221-961.251,301.032-961.251,301.032z"/>
	<path display="inline" fill="#D3EDF3" d="M-991.869,267.356c0,0,7.5,1.125,8.5,10.914"/>
	<path display="inline" fill="#D3EDF3" d="M-780.583,212.451c0,0,7.5,1.126,8.5,10.916"/>
	<line display="inline" fill="#D3EDF3" x1="-1036.51" y1="218.908" x2="-1036.51" y2="246.679"/>
	<line display="inline" fill="#D3EDF3" x1="-1013.51" y1="273.182" x2="-1013.51" y2="300.952"/>
	<line display="inline" fill="#D3EDF3" x1="-802.51" y1="193.679" x2="-802.51" y2="248.143"/>
	<path display="inline" fill="#D3EDF3" d="M-889.343,212.974c0,0-17.235,5.028-13.451,23.283"/>
	<path display="inline" fill="#D3EDF3" d="M-970.648,213.248c0,0-17.235,5.028-13.45,23.283"/>
	<path display="inline" fill="#D3EDF3" d="M-1060.905,268.307c0,0-17.234,5.027-13.45,23.283"/>
	<path display="inline" fill="#D3EDF3" d="M-1142.013,270.307c0,0-17.235,5.027-13.451,23.283"/>
	<path display="inline" fill="#D3EDF3" d="M-735.934,212.974c0,0-17.234,5.028-13.45,23.283"/>
	<path display="inline" fill="#D3EDF3" d="M-930.01,186.679v44.806c0,0,0.5,13.872,7.75,16.658"/>
	<path display="inline" fill="#D3EDF3" d="M-1100.307,280.948c0,0-1.067,17.092,7.864,23.41"/>
	<path display="inline" fill="#D3EDF3" d="M-1123.239,250.644v44.566c0,0,0.292,8.096,4.523,9.721"/>
	<path display="inline" fill="#D3EDF3" d="M-1041.72,272.055c0,0-0.494,19.131,0,25.623c0.215,2.826,2.46,8.75,8.71,8.75"/>
	<path display="inline" fill="#D3EDF3" d="M-951.257,217.607c0,0-0.494,19.13,0,25.622c0.215,2.826,2.459,8.75,8.709,8.75"/>
	<path display="inline" fill="#D3EDF3" d="M-870.278,216.607c0,0-0.493,19.13,0,25.623c0.215,2.826,2.461,8.75,8.711,8.75"/>
	<path display="inline" fill="#D3EDF3" d="M-716.222,217.607c0,0-0.493,19.13,0,25.622c0.215,2.826,2.46,8.75,8.71,8.75"/>
	<path display="inline" fill="#D3EDF3" d="M-942.646,267.063c0,0-17.953-0.156-19.596,18.414"/>
	<path display="inline" fill="#D3EDF3" d="M-903.22,267.063c0,0-17.953-0.156-19.596,18.414"/>
	<path display="inline" fill="#D3EDF3" d="M-863.567,268.307c0,0,2.512,48.205-2.465,56.537"/>
	<path display="inline" fill="#D3EDF3" d="M-905.368,320.522c0,0-11.345,9.113-6.11,19.99"/>
	<path display="inline" fill="#D3EDF3" d="M-900.343,178.512c0,0,19-11.333,28.333,0"/>
	<path display="inline" fill="#D3EDF3" d="M-814.177,214.077c0,0,7.834,3.831,1.449,7.663"/>
	<path display="inline" fill="#D3EDF3" d="M-832.677,212.974c0,0-11.666,3.633-10.166,11.289"/>
	<path display="inline" fill="#D3EDF3" d="M-816.51,231.485c0,0,10.833,7.194,3.5,15.36"/>
	<path display="inline" fill="#D3EDF3" d="M-881.677,279.344c0,0-3.5,29.334,6.667,25.834"/>
	<path display="inline" fill="#D3EDF3" d="M-892.948,270.678c0,0,2.771,5.873-0.895,9.27"/>
	<path display="inline" fill="#D3EDF3" d="M-931.961,270.678c0,0,2.787,5.873-0.9,9.27"/>
	<path display="inline" fill="#D3EDF3" d="M-1096.394,256.804c0,0-6.616-2.375-6.616,4.75"/>
</g>
<g display="none">
	<path display="inline" fill="#1AB8AF" d="M-942.99,210.757l46.97-28.31c0,0,39.122-18.692,35.197,24.421c-3.925,43.113,0,0,0,0
		s6.55-80.75-79.25,0.805"/>
	<path display="inline" fill="#1AB8AF" d="M-980.87,246.792c-0.436,2.404-8.473,9.037-18.641,6.131
		c-12.695-3.627-8.474-27.597-11.459-33.084c-1.456-2.674-6.416-7.121-13.013-1.13c-1.827,1.66-2.595,3.257-3.329,4.761
		l-0.254,29.928l-8.871-0.055v-37l9.113-5.507l0.012,8.12c0.787-1.204,3.957-4.448,5.932-5.736
		c4.297-2.804,8.826-2.447,10.087-2.259c1.261,0.192,3.93,0.766,5.567,2.017c3.067,2.341,5.568,5.488,6.215,13.314
		c0.439,5.323,0.88,19.255,5.244,21.949C-988.206,251.981-980.87,246.792-980.87,246.792z"/>
	<path display="inline" fill="#1AB8AF" d="M-938.622,248.142c-3.936-2.777-3.686-9.137-3.8-14.902c0,0,0-17.305,0-20.219v-2.631
		l-8.575,5.545c-3.707-3.164-8.531-5.086-13.784-5.086c-11.729,0-21.231,9.504-21.231,21.231c0,11.739,9.503,21.243,21.231,21.243
		c5.765,0,11.007-2.297,14.829-6.047c0.951,2.758,2.685,4.855,5.849,5.754c10.62,3.039,19.018-3.895,19.467-6.402
		C-924.637,246.628-932.543,252.435-938.622,248.142z M-959.759,249.345c-8.949,0-16.207-7.26-16.207-16.209
		c0-11.028,7.258-16.218,16.207-16.218c3.228,0,6.225,0.939,8.752,2.568l-0.053,14.1c0,4.5-0.146,9.054,0.805,12.677
		C-952.929,248.206-956.208,249.345-959.759,249.345z"/>
	<path display="inline" fill="#1AB8AF" d="M-944.929,211.961"/>
	<path display="inline" fill="#1AB8AF" d="M-889.927,230.451"/>
	<line display="inline" fill="#1AB8AF" x1="-893.464" y1="250.784" x2="-883.17" y2="250.784"/>
	<path display="inline" fill="#1AB8AF" d="M-1028.478,303.208c-3.941-2.781-3.689-9.148-3.805-14.918c0,0,0-17.322,0-20.238v-2.369
		l-8.583,5.285c-3.711-3.168-8.54-5.092-13.799-5.092c-11.739,0-21.253,9.514-21.253,21.254c0,11.75,9.514,21.262,21.253,21.262
		c5.771,0,11.019-2.299,14.845-6.053c0.951,2.762,2.687,4.861,5.854,5.762c10.632,3.041,19.037-3.9,19.486-6.408
		C-1014.479,301.692-1022.394,307.504-1028.478,303.208z M-1049.636,304.409c-8.959,0-16.225-7.266-16.225-16.225
		c0-8.969,7.266-16.234,16.225-16.234c3.23,0,6.23,0.941,8.76,2.572l-0.052,14.113c0,4.504-0.146,9.063,0.805,12.689
		C-1042.799,303.27-1046.081,304.409-1049.636,304.409z"/>
	<path display="inline" fill="#1AB8AF" d="M-857.373,247.608c-3.921-2.766-3.671-9.098-3.785-14.836c0,0,0-17.228,0-20.129v-2.619
		l-8.536,5.521c-3.69-3.15-8.494-5.064-13.725-5.064c-11.675,0-21.137,9.463-21.137,21.138c0,11.686,9.462,21.147,21.137,21.147
		c5.74,0,10.96-2.287,14.765-6.02c0.946,2.746,2.672,4.834,5.822,5.729c10.574,3.025,18.933-3.877,19.38-6.373
		C-843.452,246.101-851.323,251.882-857.373,247.608z M-878.417,248.804c-8.91,0-16.136-7.227-16.136-16.136
		c0-8.92,7.226-16.146,16.136-16.146c3.213,0,6.196,0.935,8.713,2.558l-0.052,14.035c0,4.482-0.146,9.015,0.8,12.623
		C-871.617,247.671-874.882,248.804-878.417,248.804z"/>
	<path display="inline" fill="#1AB8AF" d="M-703.573,248.216c-3.94-2.781-3.689-9.146-3.805-14.917c0,0,0-17.321,0-20.238v-2.634
		l-8.582,5.551c-3.711-3.168-8.541-5.091-13.799-5.091c-11.739,0-21.252,9.514-21.252,21.252c0,11.75,9.513,21.263,21.252,21.263
		c5.771,0,11.018-2.301,14.844-6.053c0.951,2.76,2.687,4.861,5.854,5.76c10.631,3.041,19.037-3.9,19.486-6.408
		C-689.575,246.7-697.489,252.513-703.573,248.216z M-724.73,249.419c-8.959,0-16.225-7.266-16.225-16.225
		c0-8.968,7.266-16.233,16.225-16.233c3.229,0,6.23,0.939,8.76,2.571l-0.053,14.112c0,4.505-0.146,9.062,0.806,12.691
		C-717.894,248.278-721.177,249.419-724.73,249.419z"/>
	<path display="inline" fill="#1AB8AF" d="M-930.045,183.452l10.546-6.551c0,0-0.289,41.147,0.085,48.991
		c0.28,5.882-0.08,17.759,6.245,21.949c5.937,3.934,13.396-1.449,13.396-1.449c-0.436,2.404-8.543,9.268-18.642,6.131
		c-13.909-4.32-11.214-27.403-11.001-36.195C-929.208,207.781-930.045,183.452-930.045,183.452z"/>
	<path display="inline" fill="#1AB8AF" d="M-746.299,246.487c-0.436,2.406-8.473,9.037-18.641,6.133
		c-12.695-3.627-8.474-27.598-11.459-33.085c-1.456-2.674-6.416-7.121-13.013-1.13c-1.827,1.66-2.595,3.257-3.329,4.761
		l-0.254,30.037l-9.329,0.141v-63.02l9.358-5.567l0.225,33.897c0.787-1.204,3.957-4.448,5.932-5.736
		c4.297-2.804,8.826-2.447,10.087-2.259c1.261,0.192,3.93,0.766,5.567,2.017c3.067,2.341,5.568,5.488,6.215,13.314
		c0.439,5.323,0.88,19.256,5.244,21.95C-753.635,251.677-746.299,246.487-746.299,246.487z"/>
	<path display="inline" fill="#1AB8AF" d="M-1110.675,302.991c-3.771-2.66-3.53-8.75-3.641-14.27c0,0,0-16.57,0-19.359v-2.52
		l-0.008-24.64l-8.25,5l0.048,24.949c-3.55-3.029-8.17-4.869-13.2-4.869c-11.229,0-20.33,9.1-20.33,20.33
		c0,11.24,9.101,20.34,20.33,20.34c5.521,0,10.541-2.199,14.2-5.791c0.91,2.641,2.57,4.65,5.601,5.512
		c10.17,2.908,18.209-3.73,18.64-6.131C-1097.285,301.542-1104.855,307.102-1110.675,302.991z M-1130.915,304.141
		c-8.57,0-15.52-6.949-15.52-15.52c0-8.58,6.949-15.529,15.52-15.529c3.09,0,5.96,0.898,8.38,2.459l-0.05,13.5
		c0,4.311-0.141,8.67,0.77,12.141C-1124.375,303.051-1127.515,304.141-1130.915,304.141z"/>
	<path display="inline" fill="#1AB8AF" d="M-1090.696,271.612c0,0,0.172,1.834,0.178,9.338c0.005,5.889-0.08,17.76,6.246,21.949
		c5.936,3.934,13.396-1.449,13.396-1.449c-0.435,2.404-8.542,9.268-18.642,6.131c-13.908-4.32-11-29.879-11-29.879
		L-1090.696,271.612z"/>
	<path display="inline" fill="#1AB8AF" d="M-906.919,288.208c-0.029,0-0.05-0.01-0.08-0.01v-1.16
		C-906.989,287.428-906.958,287.819-906.919,288.208z"/>
	<path display="inline" fill="#1AB8AF" d="M-906.919,288.208c-0.029,0-0.05-0.01-0.08-0.01v-1.16
		C-906.989,287.428-906.958,287.819-906.919,288.208z"/>
	<path display="inline" fill="#1AB8AF" d="M-895.019,281.088"/>
	<path display="inline" fill="#1AB8AF" d="M-927.037,299.192c-2.234,2.209-6.284,4.408-10.021,4.488
		c-8.276,0-14.212-6.213-15.127-14.234c-0.036,0-0.047-0.451,0,0c2.812,0.313,5.602,0.221,8.344-0.289
		c2.777-0.498,5.273-1.465,7.626-2.58c9.5-4.504,9.644-8.906,9.644-11.016c0-3.398-0.997-5.234-1.634-6.102
		c-0.636-0.879-1.575-1.666-2.812-2.35c-1.238-0.684-2.917-1.215-5.024-1.586c-1.909-0.336-3.737-0.463-5.473-0.383v-0.021
		c-11.851,0-21.445,9.605-21.445,21.457s9.595,21.457,21.445,21.457h0.566c13.239-0.914,17.465-10.52,17.441-13.229
		C-923.507,294.805-924.803,296.993-927.037,299.192z M-951.959,285.76c-0.559-7.813,6.569-12.051,8.726-13.02
		c2.051-0.922,5.494-0.969,6.752,0.289c0.868,0.867,2.314,3.473,0,7.234C-938.928,284.241-951.815,287.786-951.959,285.76z"/>
	<path display="inline" fill="#1AB8AF" d="M-1089.446,261.573c-0.078,0.891-0.321,1.707-0.729,2.449
		c-0.408,0.74-0.932,1.367-1.568,1.879c-0.639,0.512-1.359,0.896-2.159,1.156s-1.646,0.352-2.535,0.273s-1.707-0.314-2.45-0.711
		c-0.743-0.393-1.379-0.896-1.904-1.51c-0.527-0.613-0.92-1.32-1.18-2.121s-0.351-1.646-0.272-2.537
		c0.077-0.889,0.313-1.705,0.709-2.447c0.394-0.744,0.905-1.385,1.532-1.924c0.627-0.537,1.342-0.943,2.145-1.217
		c0.801-0.271,1.646-0.369,2.537-0.291c0.889,0.076,1.705,0.32,2.447,0.729c0.742,0.406,1.383,0.932,1.92,1.57
		c0.537,0.641,0.941,1.363,1.215,2.164C-1089.466,259.838-1089.368,260.684-1089.446,261.573z"/>
	<path display="inline" fill="#1AB8AF" d="M-852.631,261.186l-0.361,48.488c0.011,2.68-1.173,14.387-7.445,21.855
		c-7.059,8.404-15.59,11.973-19.059,13.529c-7.193,3.229-15.275,2.816-17.375,2.625c-6.141-0.539-15.068-4.178-15.125-13.75
		c-0.082-13.625,25-27.58,34.5-30.25c0,0-30,14.693-28.125,29.75c0.959,7.707,12.751,8.781,14.75,8.75
		c0.785-0.012,3.744-0.111,8.558-2.342c2.387-1.107,8.142-4.617,10.972-7.516c4.353-4.457,6.471-9.893,7.5-17.393
		c0.834-6.068,0.551-12.9,0.551-12.9c-0.601,1-1.24,1.842-1.91,2.521c-0.66,0.689-1.33,1.25-2,1.68c-0.67,0.42-1.33,0.76-1.99,1
		c-0.66,0.25-1.301,0.439-1.939,0.57c-1.07,0.209-2.121,0.25-3.121,0.119c-1-0.141-1.92-0.49-2.76-1.049
		c-0.83-0.561-1.561-1.342-2.18-2.342c-0.61-1-1.08-2.26-1.391-3.779c-0.129-0.66-0.229-1.391-0.299-2.189
		c-0.061-0.811-0.101-1.68-0.091-2.641l0.181-17.486l10.369-6.377l-0.189,23.184c-0.01,0.641,0.039,1.26,0.17,1.869
		c0.08,0.42,0.199,0.82,0.34,1.182c0.15,0.359,0.34,0.67,0.561,0.93c0.219,0.26,0.489,0.449,0.789,0.57
		c0.311,0.119,0.67,0.139,1.09,0.049c0.66-0.129,1.24-0.41,1.761-0.82c0.51-0.41,0.95-0.92,1.31-1.549
		c0.37-0.621,0.65-1.33,0.87-2.131c0.21-0.799,0.38-1.65,0.49-2.549l0.229-25.24L-852.631,261.186z"/>
	<g display="inline">
		<path fill="#1AB8AF" d="M-806.286,237.095c0.487,1.004,0.843,3.393,0.855,4.598c0.014,1.623-0.267,3.643-1.305,5.033
			c-1.053,1.381-2.499,2.574-4.366,3.594c-1.855,1.008-4.069,1.807-6.615,2.396c-2.562,0.592-5.344,0.893-8.349,0.916
			c-2.536,0.014-4.812-0.172-6.865-0.566c-2.04-0.395-3.783-0.975-5.23-1.717c-1.459-0.74-2.585-1.633-3.377-2.699
			c-0.804-1.055-1.212-2.236-1.224-3.533c0-0.857,0.149-1.656,0.507-2.363c1.887-3.74,6.308-3.615,7.334-3.582
			c2.745,0.096,6.069,2.773,3.71,5.539c-0.755,0.887-2.871,0.521-3.181,1.762c-0.335,1.287,0.361,2.943,2.339,4.184
			c1.2,0.74,2.992,0.949,5.06,0.938c1.248-0.012,5.058-0.219,6.962-2.572c0.569-0.707,1.436-2.467,1.372-4.635
			c-0.022-1.367-0.677-3.879-1.689-5.084c-1.016-1.193-2.967-2.768-6.364-4.032c-3.376-1.255-8.79-1.722-11.4-3.804
			c-4.368-3.486-4.575-7.554-4.488-9.293c0.082-1.62,0.494-3.129,1.532-4.508c1.042-1.379,2.5-2.572,4.355-3.592
			c1.866-1.02,4.08-1.82,6.628-2.41c2.56-0.579,5.343-0.893,8.349-0.904c2.535-0.022,4.811,0.163,6.853,0.568
			c2.039,0.395,3.795,0.962,5.241,1.703c1.462,0.742,2.586,1.645,3.378,2.699c0.804,1.055,1.212,2.238,1.212,3.547
			c0.013,0.856-0.161,1.645-0.508,2.352c-0.333,0.719-0.814,1.332-1.422,1.854c-0.605,0.51-1.348,0.916-2.225,1.195
			c-0.879,0.289-2.647,0.497-3.686,0.543c-1.544,0.06-4.063-0.346-4.943-1.525c-0.684-0.917-0.807-3.326,1.159-4.344
			c1.469-0.762,2.898-0.137,3.208-1.377c0.321-1.287-0.315-3.009-2.281-4.236c-1.201-0.754-2.992-0.951-5.059-0.938
			c-1.25,0-5.07,0.207-6.964,2.571c-0.569,0.706-1.433,2.456-1.384,4.635c0.035,1.367,0.297,2.919,1.313,4.111
			c1.012,1.193,5.65,1.926,9.001,3.271C-816.839,228.187-809.915,229.597-806.286,237.095z"/>
	</g>
	<path display="inline" fill="#1AB8AF" d="M-887.845,299.333c-2.234,2.209-6.283,4.406-10.021,4.488
		c-8.275,0-14.211-6.215-15.127-14.234c-0.035,0-0.047-0.451,0,0c2.813,0.313,5.602,0.219,8.344-0.291
		c2.777-0.496,5.273-1.465,7.627-2.58c9.5-4.504,9.643-8.904,9.643-11.014c0-3.4-0.996-5.234-1.633-6.102
		c-0.637-0.881-1.576-1.668-2.813-2.35c-1.238-0.684-2.916-1.217-5.023-1.586c-1.91-0.336-3.738-0.463-5.473-0.383v-0.021
		c-11.852,0-21.445,9.605-21.445,21.455c0,11.852,9.594,21.457,21.445,21.457h0.566c13.238-0.914,17.465-10.52,17.441-13.227
		C-884.313,294.946-885.61,297.131-887.845,299.333z M-912.767,285.901c-0.559-7.814,6.57-12.053,8.727-13.021
		c2.051-0.922,5.494-0.967,6.752,0.291c0.867,0.867,2.314,3.471,0,7.232C-899.735,284.379-912.622,287.924-912.767,285.901z"/>
	<g display="inline">
		<path fill="#FAF8CF" d="M-1011.488,213.115c0,0,0.243-0.048,0.674-0.043c0.426,0.014,1.053,0.06,1.76,0.286
			c0.364,0.092,0.734,0.253,1.131,0.422c0.375,0.204,0.794,0.399,1.17,0.687c0.397,0.259,0.769,0.579,1.126,0.928
			c0.378,0.33,0.666,0.751,0.997,1.134c0.276,0.421,0.554,0.845,0.783,1.283c0.204,0.449,0.406,0.892,0.557,1.331
			c0.129,0.448,0.239,0.883,0.335,1.293c0.075,0.416,0.095,0.817,0.127,1.18c0.091,0.722-0.023,1.339-0.057,1.757
			c-0.053,0.421-0.103,0.658-0.103,0.658s-0.119-0.222-0.292-0.603c-0.083-0.191-0.19-0.42-0.288-0.684
			c-0.093-0.265-0.237-0.551-0.377-0.861c-0.138-0.307-0.287-0.639-0.445-0.99c-0.18-0.337-0.361-0.69-0.534-1.058
			c-0.194-0.357-0.423-0.705-0.617-1.077c-0.232-0.346-0.468-0.697-0.704-1.049c-0.271-0.32-0.499-0.681-0.786-0.979
			c-0.275-0.311-0.545-0.619-0.838-0.891c-0.273-0.295-0.581-0.53-0.854-0.79c-0.295-0.222-0.558-0.477-0.833-0.663
			C-1010.626,213.589-1011.488,213.115-1011.488,213.115z"/>
	</g>
	<path display="inline" fill="#1AB8AF" d="M-958.229,301.172c-0.436,2.406-8.473,9.037-18.641,6.133
		c-12.695-3.627-8.474-27.598-11.459-33.086c-1.456-2.674-6.416-7.121-13.013-1.129c-1.827,1.66-2.595,3.256-3.329,4.76
		l-0.254,29.93l-8.871-0.057v-36.998l9.113-5.508l0.012,8.121c0.787-1.205,3.957-4.449,5.932-5.736
		c4.297-2.805,8.826-2.447,10.087-2.26c1.261,0.193,3.93,0.766,5.567,2.018c3.067,2.34,5.568,5.488,6.215,13.314
		c0.439,5.322,0.88,19.256,5.244,21.949C-965.565,306.362-958.229,301.172-958.229,301.172z"/>
	<g display="inline">
		<path fill="#FAF8CF" d="M-988.848,267.497c0,0,0.243-0.048,0.674-0.043c0.426,0.014,1.053,0.06,1.76,0.286
			c0.364,0.092,0.734,0.253,1.131,0.421c0.375,0.204,0.794,0.399,1.169,0.687c0.398,0.26,0.77,0.579,1.126,0.928
			c0.378,0.329,0.666,0.751,0.997,1.134c0.276,0.422,0.554,0.846,0.783,1.283c0.204,0.448,0.406,0.892,0.557,1.331
			c0.129,0.447,0.239,0.883,0.335,1.293c0.075,0.415,0.095,0.816,0.126,1.18c0.091,0.723-0.023,1.34-0.057,1.758
			c-0.053,0.421-0.103,0.657-0.103,0.657s-0.119-0.222-0.292-0.604c-0.083-0.19-0.19-0.42-0.288-0.683
			c-0.093-0.266-0.237-0.552-0.377-0.861c-0.138-0.307-0.287-0.64-0.445-0.99c-0.18-0.338-0.361-0.69-0.534-1.059
			c-0.194-0.356-0.423-0.705-0.617-1.077c-0.232-0.346-0.468-0.697-0.704-1.049c-0.271-0.32-0.499-0.68-0.786-0.979
			c-0.275-0.312-0.545-0.619-0.838-0.891c-0.273-0.296-0.581-0.53-0.854-0.789c-0.295-0.223-0.558-0.478-0.833-0.663
			C-987.986,267.971-988.848,267.497-988.848,267.497z"/>
	</g>
	<g display="inline">
		<path fill="#FAF8CF" d="M-777.562,212.591c0,0,0.242-0.048,0.674-0.043c0.426,0.014,1.053,0.06,1.76,0.286
			c0.364,0.092,0.734,0.253,1.132,0.422c0.375,0.204,0.795,0.399,1.17,0.687c0.397,0.259,0.77,0.579,1.126,0.928
			c0.378,0.33,0.665,0.751,0.997,1.134c0.275,0.421,0.554,0.845,0.783,1.283c0.203,0.449,0.405,0.892,0.557,1.331
			c0.129,0.448,0.238,0.883,0.335,1.293c0.075,0.416,0.095,0.817,0.126,1.18c0.092,0.722-0.022,1.339-0.057,1.757
			c-0.053,0.421-0.103,0.658-0.103,0.658s-0.118-0.222-0.292-0.603c-0.083-0.191-0.189-0.42-0.288-0.684
			c-0.093-0.265-0.236-0.551-0.377-0.861c-0.138-0.307-0.287-0.639-0.445-0.99c-0.18-0.337-0.36-0.69-0.533-1.058
			c-0.194-0.357-0.423-0.705-0.617-1.077c-0.232-0.346-0.468-0.697-0.703-1.049c-0.271-0.32-0.5-0.681-0.787-0.979
			c-0.274-0.311-0.545-0.619-0.838-0.891c-0.272-0.295-0.581-0.53-0.854-0.79c-0.295-0.222-0.558-0.477-0.833-0.663
			C-776.699,213.066-777.562,212.591-777.562,212.591z"/>
	</g>
	<g display="inline">
		<path fill="#FAF8CF" d="M-1033.488,219.049c0,0,0.251,1.736,0.429,4.339c0.097,1.302,0.177,2.82,0.23,4.447
			c0.063,1.627,0.075,3.363,0.091,5.099c-0.016,1.736-0.025,3.471-0.089,5.099c-0.053,1.627-0.133,3.146-0.23,4.447
			c-0.178,2.604-0.431,4.339-0.431,4.339s-0.252-1.736-0.431-4.339c-0.097-1.302-0.177-2.82-0.23-4.447
			c-0.063-1.627-0.073-3.363-0.089-5.099c0.016-1.736,0.027-3.471,0.091-5.099c0.053-1.627,0.133-3.146,0.23-4.447
			C-1033.739,220.785-1033.488,219.049-1033.488,219.049z"/>
	</g>
	<g display="inline">
		<path fill="#FAF8CF" d="M-1010.488,273.323c0,0,0.035,0.434,0.097,1.193c0.041,0.759,0.138,1.844,0.184,3.146
			c0.044,1.302,0.127,2.82,0.159,4.447c0.042,1.628,0.05,3.363,0.061,5.099c-0.01,1.735-0.017,3.471-0.059,5.099
			c-0.03,1.627-0.115,3.146-0.159,4.447c-0.044,1.302-0.144,2.387-0.184,3.146c-0.062,0.76-0.097,1.193-0.097,1.193
			s-0.035-0.434-0.097-1.193c-0.041-0.759-0.14-1.844-0.184-3.146c-0.044-1.302-0.129-2.82-0.159-4.447
			c-0.042-1.628-0.049-3.363-0.059-5.099c0.01-1.735,0.018-3.471,0.061-5.099c0.031-1.627,0.115-3.146,0.159-4.447
			c0.045-1.302,0.143-2.387,0.184-3.146C-1010.523,273.756-1010.488,273.323-1010.488,273.323z"/>
	</g>
	<g display="inline">
		<path fill="#FAF8CF" d="M-799.488,193.819c0,0,0.065,0.851,0.146,2.34c0.063,1.489,0.198,3.617,0.283,6.169
			c0.097,2.553,0.177,5.532,0.23,8.723c0.063,3.191,0.074,6.595,0.091,9.999c-0.016,3.404-0.025,6.808-0.09,9.999
			c-0.052,3.191-0.133,6.17-0.229,8.723c-0.084,2.553-0.221,4.68-0.285,6.169c-0.079,1.489-0.146,2.34-0.146,2.34
			s-0.066-0.851-0.146-2.34c-0.064-1.489-0.201-3.617-0.285-6.169c-0.097-2.553-0.178-5.532-0.229-8.723
			c-0.064-3.191-0.074-6.595-0.09-9.999c0.017-3.404,0.027-6.808,0.091-9.999c0.054-3.191,0.134-6.17,0.23-8.723
			c0.085-2.553,0.22-4.68,0.283-6.169C-799.554,194.67-799.488,193.819-799.488,193.819z"/>
	</g>
	<g display="inline">
		<path fill="#FAF8CF" d="M-886.321,213.115c0,0-0.425,0.208-1.124,0.621c-0.357,0.189-0.767,0.471-1.249,0.75
			c-0.465,0.315-1,0.646-1.552,1.047c-0.555,0.398-1.143,0.838-1.735,1.335c-0.622,0.461-1.168,1.069-1.798,1.613
			c-0.56,0.615-1.172,1.222-1.69,1.915c-0.263,0.343-0.528,0.689-0.794,1.037c-0.257,0.353-0.451,0.749-0.681,1.12
			c-0.508,0.719-0.828,1.536-1.188,2.319c-0.197,0.386-0.326,0.793-0.449,1.199c-0.13,0.405-0.259,0.804-0.385,1.197
			c-0.158,0.388-0.174,0.801-0.266,1.191c-0.077,0.395-0.153,0.781-0.227,1.158c-0.038,0.189-0.074,0.376-0.11,0.56
			c-0.012,0.187-0.024,0.371-0.036,0.552c-0.028,0.364-0.056,0.716-0.082,1.054c-0.036,0.678-0.149,1.309-0.097,1.865
			c0.022,0.557,0.021,1.049,0.025,1.457c0.002,0.816-0.014,1.294-0.014,1.294s-0.149-0.44-0.379-1.232
			c-0.112-0.396-0.254-0.88-0.394-1.442c-0.183-0.557-0.215-1.209-0.29-1.922c-0.038-0.712-0.225-1.494-0.111-2.319
			c0.081-0.822,0.05-1.717,0.262-2.604c0.106-0.445,0.214-0.897,0.323-1.356l0.167-0.693c0.067-0.229,0.178-0.444,0.266-0.668
			c0.377-0.888,0.721-1.813,1.267-2.633c0.267-0.411,0.5-0.846,0.796-1.232c0.306-0.379,0.609-0.757,0.911-1.132
			c0.285-0.39,0.633-0.715,0.977-1.035c0.344-0.319,0.668-0.65,1.014-0.944c0.716-0.557,1.395-1.112,2.114-1.522
			c0.354-0.212,0.683-0.441,1.026-0.62c0.346-0.172,0.681-0.337,1.002-0.497c0.636-0.324,1.26-0.538,1.797-0.745
			c0.55-0.183,1.026-0.337,1.432-0.43C-886.792,213.161-886.321,213.115-886.321,213.115z"/>
	</g>
	<g display="inline">
		<path fill="#FAF8CF" d="M-967.627,213.389c0,0-0.424,0.208-1.125,0.621c-0.357,0.189-0.767,0.471-1.249,0.75
			c-0.465,0.315-0.999,0.646-1.551,1.047c-0.555,0.398-1.143,0.838-1.735,1.335c-0.622,0.461-1.168,1.069-1.798,1.613
			c-0.559,0.616-1.172,1.222-1.69,1.915c-0.263,0.343-0.528,0.689-0.794,1.037c-0.257,0.353-0.451,0.749-0.681,1.12
			c-0.508,0.72-0.828,1.536-1.188,2.32c-0.197,0.386-0.326,0.793-0.449,1.199c-0.13,0.405-0.259,0.805-0.385,1.198
			c-0.158,0.388-0.174,0.801-0.266,1.191c-0.077,0.395-0.153,0.781-0.227,1.158c-0.037,0.189-0.074,0.375-0.11,0.56
			c-0.012,0.187-0.024,0.371-0.036,0.552c-0.028,0.364-0.055,0.716-0.082,1.054c-0.036,0.678-0.149,1.309-0.096,1.865
			c0.022,0.557,0.021,1.049,0.025,1.457c0.002,0.816-0.014,1.294-0.014,1.294s-0.149-0.44-0.379-1.232
			c-0.112-0.396-0.254-0.88-0.394-1.442c-0.183-0.557-0.216-1.209-0.29-1.922c-0.038-0.712-0.225-1.494-0.111-2.319
			c0.08-0.822,0.049-1.717,0.262-2.604c0.106-0.445,0.214-0.897,0.323-1.356l0.167-0.693c0.068-0.229,0.178-0.444,0.266-0.668
			c0.377-0.888,0.721-1.813,1.267-2.633c0.267-0.411,0.5-0.846,0.796-1.233c0.305-0.379,0.609-0.757,0.911-1.132
			c0.285-0.39,0.633-0.716,0.977-1.035c0.344-0.319,0.668-0.65,1.014-0.944c0.716-0.557,1.395-1.112,2.114-1.522
			c0.354-0.212,0.683-0.441,1.026-0.62c0.346-0.171,0.681-0.337,1.002-0.497c0.636-0.324,1.26-0.538,1.797-0.745
			c0.55-0.183,1.026-0.337,1.431-0.43C-968.098,213.435-967.627,213.388-967.627,213.389z"/>
	</g>
	<g display="inline">
		<path fill="#FAF8CF" d="M-1057.884,268.448c0,0-0.424,0.208-1.125,0.621c-0.357,0.189-0.767,0.471-1.249,0.749
			c-0.465,0.315-0.999,0.646-1.551,1.047c-0.555,0.398-1.143,0.839-1.735,1.336c-0.622,0.461-1.168,1.069-1.798,1.612
			c-0.559,0.616-1.172,1.223-1.69,1.915c-0.263,0.344-0.528,0.689-0.794,1.037c-0.257,0.353-0.451,0.748-0.681,1.12
			c-0.508,0.719-0.828,1.536-1.188,2.319c-0.197,0.386-0.326,0.793-0.449,1.199c-0.13,0.404-0.259,0.804-0.385,1.197
			c-0.158,0.388-0.174,0.801-0.265,1.191c-0.078,0.395-0.153,0.781-0.227,1.157c-0.038,0.189-0.074,0.376-0.111,0.56
			c-0.012,0.187-0.023,0.371-0.035,0.552c-0.028,0.364-0.056,0.716-0.082,1.054c-0.036,0.678-0.149,1.31-0.097,1.866
			c0.022,0.557,0.021,1.049,0.025,1.456c0.002,0.815-0.014,1.294-0.014,1.294s-0.149-0.44-0.379-1.232
			c-0.112-0.396-0.254-0.88-0.394-1.441c-0.183-0.558-0.215-1.21-0.29-1.922c-0.038-0.713-0.225-1.495-0.111-2.319
			c0.08-0.822,0.05-1.717,0.262-2.604c0.106-0.445,0.214-0.898,0.323-1.356l0.167-0.693c0.067-0.229,0.178-0.444,0.266-0.668
			c0.377-0.889,0.721-1.813,1.267-2.634c0.267-0.411,0.5-0.846,0.796-1.232c0.305-0.38,0.609-0.758,0.911-1.133
			c0.285-0.39,0.633-0.716,0.977-1.035c0.344-0.319,0.668-0.65,1.014-0.944c0.716-0.557,1.395-1.111,2.114-1.521
			c0.354-0.213,0.683-0.441,1.026-0.62c0.346-0.172,0.681-0.338,1.002-0.496c0.636-0.324,1.26-0.538,1.797-0.745
			c0.55-0.184,1.026-0.338,1.431-0.431C-1058.354,268.494-1057.884,268.448-1057.884,268.448z"/>
	</g>
	<g display="inline">
		<path fill="#FAF8CF" d="M-1138.991,270.448c0,0-0.424,0.208-1.125,0.621c-0.357,0.189-0.767,0.471-1.249,0.749
			c-0.465,0.315-1,0.646-1.551,1.047c-0.555,0.398-1.143,0.839-1.735,1.336c-0.622,0.461-1.168,1.069-1.799,1.612
			c-0.559,0.616-1.172,1.223-1.69,1.915c-0.263,0.343-0.528,0.689-0.794,1.037c-0.257,0.353-0.451,0.748-0.681,1.12
			c-0.508,0.719-0.828,1.535-1.188,2.319c-0.198,0.386-0.326,0.793-0.449,1.199c-0.13,0.404-0.259,0.804-0.385,1.197
			c-0.158,0.388-0.174,0.801-0.266,1.19c-0.077,0.396-0.153,0.782-0.227,1.158c-0.038,0.189-0.074,0.376-0.111,0.56
			c-0.012,0.187-0.023,0.371-0.035,0.552c-0.028,0.364-0.056,0.716-0.082,1.054c-0.036,0.678-0.149,1.31-0.097,1.865
			c0.022,0.558,0.021,1.05,0.025,1.457c0.002,0.815-0.014,1.294-0.014,1.294s-0.149-0.44-0.379-1.232
			c-0.112-0.396-0.254-0.88-0.394-1.441c-0.183-0.558-0.215-1.21-0.29-1.923c-0.038-0.712-0.225-1.494-0.111-2.319
			c0.08-0.821,0.05-1.717,0.262-2.604c0.106-0.444,0.214-0.897,0.323-1.355l0.167-0.693c0.068-0.229,0.178-0.444,0.266-0.669
			c0.377-0.888,0.721-1.813,1.267-2.633c0.267-0.411,0.5-0.847,0.796-1.233c0.305-0.379,0.609-0.757,0.911-1.132
			c0.284-0.39,0.632-0.716,0.977-1.035c0.344-0.319,0.668-0.65,1.014-0.944c0.716-0.557,1.395-1.111,2.114-1.522
			c0.354-0.212,0.683-0.44,1.027-0.619c0.346-0.172,0.681-0.338,1.002-0.497c0.636-0.323,1.26-0.537,1.797-0.744
			c0.549-0.184,1.026-0.338,1.431-0.431C-1139.462,270.494-1138.991,270.448-1138.991,270.448z"/>
	</g>
	<g display="inline">
		<path fill="#FAF8CF" d="M-732.912,213.115c0,0-0.425,0.208-1.124,0.621c-0.357,0.189-0.767,0.471-1.249,0.75
			c-0.466,0.315-1,0.646-1.552,1.047c-0.555,0.398-1.143,0.838-1.735,1.335c-0.621,0.461-1.168,1.069-1.798,1.613
			c-0.56,0.616-1.172,1.222-1.69,1.915c-0.263,0.343-0.528,0.689-0.794,1.037c-0.257,0.353-0.451,0.749-0.681,1.12
			c-0.508,0.72-0.828,1.536-1.188,2.32c-0.197,0.385-0.326,0.793-0.449,1.199c-0.131,0.405-0.259,0.804-0.386,1.198
			c-0.158,0.387-0.174,0.801-0.265,1.191c-0.078,0.395-0.153,0.781-0.228,1.157c-0.037,0.189-0.074,0.376-0.11,0.56
			c-0.012,0.187-0.023,0.371-0.035,0.552c-0.028,0.364-0.056,0.716-0.082,1.054c-0.035,0.678-0.148,1.309-0.096,1.865
			c0.021,0.557,0.021,1.049,0.024,1.457c0.002,0.816-0.014,1.294-0.014,1.294s-0.148-0.44-0.379-1.232
			c-0.112-0.396-0.255-0.88-0.394-1.442c-0.184-0.557-0.216-1.209-0.29-1.922c-0.038-0.712-0.226-1.494-0.111-2.319
			c0.08-0.822,0.05-1.717,0.262-2.605c0.105-0.445,0.214-0.897,0.323-1.355l0.167-0.693c0.067-0.229,0.178-0.444,0.266-0.668
			c0.377-0.888,0.721-1.813,1.268-2.633c0.267-0.411,0.5-0.846,0.796-1.233c0.305-0.379,0.609-0.757,0.91-1.132
			c0.285-0.39,0.633-0.716,0.978-1.035c0.344-0.32,0.668-0.65,1.014-0.944c0.716-0.557,1.395-1.112,2.113-1.522
			c0.354-0.212,0.683-0.441,1.026-0.62c0.347-0.171,0.681-0.337,1.002-0.497c0.637-0.324,1.26-0.538,1.797-0.745
			c0.55-0.183,1.026-0.337,1.432-0.43C-733.383,213.161-732.912,213.115-732.912,213.115z"/>
	</g>
	<g display="inline">
		<path fill="#FAF8CF" d="M-926.988,186.819c0,0,0.053,1.001,0.145,2.753c0.064,1.752,0.199,4.255,0.284,7.258
			c0.097,3.003,0.177,6.507,0.23,10.261c0.063,3.754,0.075,7.758,0.091,11.763c-0.016,4.004-0.025,8.009-0.089,11.763
			c-0.057,1.818,0.167,3.605,0.404,5.282c0.264,1.674,0.621,3.238,1.053,4.65c0.425,1.417,0.988,2.646,1.543,3.708
			c0.31,0.508,0.615,0.981,0.916,1.402c0.342,0.385,0.637,0.766,0.943,1.067c0.33,0.28,0.624,0.529,0.88,0.746
			c0.26,0.214,0.53,0.324,0.726,0.451c0.407,0.235,0.624,0.36,0.624,0.36s-0.23-0.1-0.661-0.288c-0.21-0.105-0.5-0.188-0.788-0.374
			c-0.284-0.197-0.61-0.424-0.975-0.678c-0.342-0.284-0.677-0.647-1.068-1.021c-0.348-0.407-0.706-0.87-1.072-1.373
			c-0.67-1.044-1.367-2.28-1.882-3.72c-0.539-1.429-1.005-3.022-1.342-4.736c-0.319-1.713-0.642-3.538-0.623-5.477
			c-0.063-3.754-0.073-7.758-0.089-11.763c0.016-4.004,0.027-8.009,0.091-11.763c0.053-3.754,0.133-7.258,0.23-10.261
			c0.084-3.003,0.219-5.506,0.284-7.258C-927.041,187.82-926.988,186.819-926.988,186.819z"/>
	</g>
	<g display="inline">
		<path fill="#FAF8CF" d="M-1097.285,281.088c0,0,0.157,1.612,0.447,3.98c0.162,1.184,0.344,2.559,0.606,4.015
			c0.119,0.73,0.275,1.478,0.439,2.232c0.138,0.763,0.348,1.517,0.548,2.273c0.166,0.768,0.446,1.495,0.658,2.234
			c0.268,0.718,0.531,1.424,0.785,2.107c0.329,0.646,0.595,1.303,0.901,1.896c0.338,0.578,0.658,1.124,0.953,1.628
			c0.354,0.461,0.669,0.898,0.951,1.291c0.268,0.407,0.602,0.663,0.826,0.932c0.477,0.522,0.749,0.82,0.749,0.82
			s-0.342-0.203-0.941-0.592c-0.282-0.212-0.701-0.399-1.044-0.76c-0.365-0.338-0.779-0.725-1.221-1.163
			c-0.395-0.472-0.803-1.005-1.23-1.576c-0.392-0.59-0.758-1.242-1.141-1.918c-0.312-0.703-0.675-1.42-0.953-2.181
			c-0.241-0.769-0.554-1.536-0.742-2.332c-0.193-0.796-0.394-1.59-0.52-2.383c-0.164-0.787-0.241-1.573-0.324-2.331
			c-0.106-0.756-0.107-1.495-0.151-2.189c-0.027-0.696-0.019-1.356-0.007-1.963C-1097.63,282.679-1097.285,281.088-1097.285,281.088
			z"/>
	</g>
	<g display="inline">
		<path fill="#FAF8CF" d="M-1120.218,250.784c0,0,0.032,0.872,0.087,2.398c0.042,1.526,0.101,3.707,0.171,6.322
			c0.045,2.616,0.098,5.669,0.154,8.938c0.021,3.271,0.042,6.759,0.064,10.247c0.036,3.488,0.008,6.977-0.012,10.246
			c-0.009,1.636-0.019,3.216-0.027,4.715c0.008,0.734-0.037,1.513,0.015,2.148c0.041,0.688,0.106,1.357,0.199,1.994
			c0.365,2.548,1.151,4.595,2.066,5.78c0.456,0.594,0.924,0.968,1.262,1.189c0.167,0.118,0.309,0.184,0.402,0.233
			c0.094,0.049,0.142,0.074,0.142,0.074s-0.051-0.019-0.15-0.056s-0.25-0.085-0.434-0.182c-0.374-0.173-0.896-0.511-1.428-1.084
			c-0.534-0.569-1.071-1.368-1.516-2.359c-0.434-0.995-0.799-2.167-1.065-3.471c-0.132-0.652-0.249-1.335-0.321-2.053
			c-0.073-0.771-0.027-1.452-0.047-2.216c-0.008-1.499-0.018-3.079-0.027-4.715c-0.02-3.27-0.048-6.758-0.012-10.246
			c0.022-3.488,0.044-6.977,0.064-10.247c0.056-3.27,0.109-6.322,0.154-8.938c0.071-2.616,0.13-4.796,0.171-6.322
			C-1120.25,251.656-1120.218,250.784-1120.218,250.784z"/>
	</g>
	<g display="inline">
		<path fill="#FAF8CF" d="M-1038.698,272.196c0,0,0.023,0.613,0.063,1.687c0.017,1.073,0.097,2.606,0.104,4.444
			c0.076,3.677,0.099,8.577,0.131,13.47c0.021,1.22,0.02,2.447,0.057,3.644c0.066,1.184,0.002,2.414,0.223,3.458
			c0.422,2.176,1.461,4.089,2.733,5.335c1.256,1.282,2.711,1.867,3.74,2.097c0.519,0.113,0.935,0.178,1.221,0.202
			c0.286,0.024,0.439,0.037,0.439,0.037s-0.153,0.004-0.441,0.011c-0.288,0.003-0.712-0.008-1.25-0.079
			c-1.059-0.154-2.631-0.619-4.063-1.891c-1.417-1.264-2.614-3.223-3.183-5.539c-0.146-0.578-0.215-1.216-0.239-1.792
			c-0.038-0.595-0.076-1.196-0.114-1.802c-0.078-1.214-0.07-2.439-0.109-3.669c-0.037-1.229-0.01-2.455-0.013-3.663
			c-0.005-1.208,0.021-2.396,0.05-3.546c0.031-2.3,0.162-4.444,0.234-6.282C-1038.935,274.642-1038.698,272.196-1038.698,272.196z"
			/>
	</g>
	<g display="inline">
		<path fill="#FAF8CF" d="M-948.235,217.748c0,0,0.023,0.613,0.063,1.687c0.017,1.073,0.097,2.606,0.104,4.444
			c0.076,3.677,0.099,8.577,0.131,13.468c0.021,1.221,0.02,2.448,0.057,3.645c0.066,1.183,0.003,2.414,0.223,3.457
			c0.422,2.176,1.461,4.09,2.732,5.335c1.257,1.282,2.712,1.867,3.74,2.097c0.519,0.114,0.935,0.178,1.221,0.203
			c0.286,0.024,0.439,0.037,0.439,0.037s-0.153,0.003-0.441,0.01c-0.288,0.003-0.712-0.007-1.25-0.078
			c-1.059-0.155-2.631-0.619-4.062-1.892c-1.417-1.263-2.614-3.223-3.183-5.539c-0.146-0.579-0.215-1.215-0.239-1.792
			c-0.038-0.594-0.075-1.196-0.114-1.802c-0.078-1.213-0.07-2.438-0.109-3.668c-0.037-1.229-0.01-2.455-0.013-3.663
			c-0.005-1.208,0.021-2.396,0.05-3.546c0.031-2.3,0.162-4.444,0.234-6.282C-948.472,220.194-948.235,217.748-948.235,217.748z"/>
	</g>
	<g display="inline">
		<path fill="#FAF8CF" d="M-867.257,216.748c0,0,0.023,0.613,0.063,1.687c0.018,1.073,0.097,2.606,0.104,4.444
			c0.076,3.676,0.1,8.577,0.132,13.469c0.02,1.221,0.019,2.448,0.056,3.645c0.066,1.183,0.003,2.414,0.224,3.457
			c0.422,2.176,1.462,4.089,2.733,5.334c1.257,1.282,2.712,1.867,3.74,2.097c0.518,0.114,0.935,0.178,1.22,0.203
			c0.287,0.024,0.439,0.037,0.439,0.037s-0.153,0.003-0.441,0.01c-0.288,0.003-0.713-0.007-1.251-0.078
			c-1.059-0.155-2.631-0.619-4.062-1.891c-1.418-1.263-2.615-3.223-3.185-5.538c-0.146-0.579-0.215-1.216-0.239-1.792
			c-0.037-0.594-0.075-1.196-0.113-1.802c-0.078-1.213-0.069-2.438-0.109-3.668c-0.036-1.229-0.01-2.455-0.013-3.664
			c-0.005-1.208,0.021-2.396,0.051-3.546c0.031-2.3,0.162-4.444,0.234-6.282C-867.493,219.193-867.257,216.748-867.257,216.748z"/>
	</g>
	<g display="inline">
		<path fill="#FAF8CF" d="M-713.2,217.748c0,0,0.023,0.613,0.063,1.687c0.018,1.073,0.097,2.606,0.104,4.444
			c0.076,3.677,0.1,8.577,0.132,13.469c0.02,1.221,0.019,2.447,0.056,3.644c0.066,1.184,0.003,2.414,0.224,3.458
			c0.422,2.176,1.461,4.089,2.732,5.334c1.257,1.282,2.712,1.867,3.74,2.097c0.518,0.114,0.935,0.178,1.22,0.203
			c0.287,0.024,0.439,0.037,0.439,0.037s-0.153,0.003-0.441,0.01c-0.288,0.003-0.713-0.007-1.251-0.078
			c-1.059-0.155-2.631-0.619-4.062-1.892c-1.417-1.263-2.615-3.222-3.184-5.538c-0.146-0.579-0.215-1.216-0.239-1.792
			c-0.037-0.594-0.075-1.196-0.113-1.802c-0.078-1.213-0.069-2.439-0.109-3.668c-0.036-1.229-0.01-2.455-0.013-3.663
			c-0.005-1.208,0.021-2.396,0.051-3.546c0.031-2.3,0.162-4.443,0.234-6.282C-713.437,220.194-713.2,217.748-713.2,217.748z"/>
	</g>
	<g display="inline">
		<path fill="#FAF8CF" d="M-939.624,267.204c0,0-0.466,0.076-1.256,0.271c-0.396,0.078-0.87,0.229-1.412,0.357
			c-0.536,0.167-1.143,0.33-1.788,0.555c-0.646,0.221-1.335,0.474-2.046,0.778c-0.729,0.263-1.427,0.688-2.188,1.025
			c-0.713,0.429-1.475,0.832-2.171,1.346c-0.351,0.253-0.704,0.508-1.059,0.764c-0.348,0.264-0.648,0.587-0.975,0.876
			c-0.694,0.543-1.236,1.232-1.806,1.879c-0.3,0.313-0.541,0.665-0.776,1.019c-0.242,0.35-0.48,0.695-0.714,1.035
			c-0.264,0.325-0.398,0.717-0.598,1.064c-0.188,0.355-0.372,0.703-0.551,1.042c-0.09,0.171-0.18,0.339-0.267,0.505
			c-0.065,0.175-0.13,0.348-0.193,0.518c-0.132,0.341-0.26,0.67-0.382,0.985c-0.229,0.639-0.521,1.211-0.63,1.759
			c-0.139,0.54-0.282,1.011-0.396,1.402c-0.233,0.781-0.387,1.234-0.387,1.234s-0.016-0.465-0.007-1.289
			c0.007-0.412,0.01-0.916,0.039-1.494c-0.015-0.587,0.142-1.221,0.276-1.924c0.169-0.693,0.216-1.496,0.563-2.253
			c0.314-0.764,0.543-1.63,1.002-2.419c0.23-0.396,0.464-0.798,0.701-1.205l0.36-0.615c0.131-0.199,0.299-0.374,0.448-0.563
			c0.617-0.741,1.213-1.528,1.973-2.156c0.374-0.316,0.723-0.665,1.118-0.95c0.402-0.275,0.802-0.55,1.199-0.821
			c0.385-0.292,0.812-0.503,1.234-0.71c0.421-0.206,0.828-0.43,1.243-0.611c0.846-0.326,1.656-0.662,2.463-0.848
			c0.4-0.102,0.781-0.226,1.162-0.298c0.381-0.064,0.75-0.126,1.103-0.187c0.702-0.126,1.361-0.151,1.935-0.194
			c0.579-0.018,1.08-0.027,1.495,0C-940.088,267.112-939.624,267.204-939.624,267.204z"/>
	</g>
	<g display="inline">
		<path fill="#FAF8CF" d="M-900.198,267.204c0,0-0.466,0.076-1.256,0.271c-0.396,0.078-0.87,0.229-1.412,0.357
			c-0.536,0.167-1.143,0.33-1.788,0.555c-0.646,0.221-1.335,0.474-2.046,0.778c-0.729,0.263-1.427,0.688-2.188,1.025
			c-0.713,0.429-1.475,0.832-2.171,1.346c-0.351,0.253-0.704,0.508-1.059,0.764c-0.348,0.264-0.648,0.587-0.975,0.876
			c-0.694,0.543-1.236,1.232-1.806,1.879c-0.3,0.313-0.541,0.665-0.776,1.019c-0.242,0.35-0.48,0.695-0.714,1.035
			c-0.264,0.325-0.398,0.717-0.598,1.064c-0.188,0.355-0.372,0.703-0.551,1.042c-0.09,0.171-0.18,0.339-0.267,0.505
			c-0.065,0.175-0.13,0.348-0.193,0.518c-0.132,0.341-0.26,0.67-0.382,0.985c-0.229,0.639-0.521,1.211-0.63,1.759
			c-0.139,0.54-0.282,1.011-0.396,1.402c-0.233,0.781-0.387,1.234-0.387,1.234s-0.016-0.465-0.007-1.289
			c0.007-0.412,0.01-0.916,0.039-1.494c-0.015-0.587,0.142-1.221,0.276-1.924c0.169-0.693,0.216-1.496,0.563-2.253
			c0.314-0.764,0.543-1.63,1.002-2.419c0.23-0.396,0.464-0.798,0.701-1.205l0.36-0.615c0.131-0.199,0.299-0.374,0.448-0.563
			c0.617-0.741,1.213-1.528,1.973-2.156c0.374-0.316,0.723-0.665,1.118-0.95c0.402-0.275,0.802-0.55,1.199-0.821
			c0.385-0.292,0.812-0.503,1.234-0.71c0.421-0.206,0.828-0.43,1.243-0.611c0.846-0.326,1.656-0.662,2.463-0.848
			c0.4-0.102,0.781-0.226,1.162-0.298c0.381-0.064,0.75-0.126,1.103-0.187c0.702-0.126,1.361-0.151,1.935-0.194
			c0.579-0.018,1.08-0.027,1.495,0C-900.662,267.112-900.198,267.204-900.198,267.204z"/>
	</g>
	<g display="inline">
		<path fill="#FAF8CF" d="M-860.546,268.448c0,0,0.112,0.885,0.259,2.436c0.131,1.552,0.354,3.768,0.523,6.432
			c0.182,2.664,0.344,5.775,0.45,9.111c0.115,3.336,0.15,6.896,0.137,10.459c-0.021,1.781-0.057,3.563-0.111,5.316
			c-0.042,1.754-0.148,3.479-0.247,5.148c-0.209,3.338-0.523,6.451-0.941,9.102c-0.202,1.326-0.447,2.534-0.696,3.597
			c-0.258,1.063-0.521,1.978-0.781,2.719c-0.11,0.375-0.275,0.691-0.39,0.973c-0.111,0.282-0.233,0.512-0.346,0.69
			c-0.21,0.362-0.321,0.555-0.321,0.555s0.086-0.205,0.248-0.59c0.184-0.371,0.321-0.973,0.529-1.712
			c0.186-0.75,0.357-1.673,0.512-2.738c0.142-1.068,0.269-2.276,0.39-3.598c0.223-2.644,0.374-5.739,0.478-9.06
			c0.093-3.32,0.165-6.866,0.179-10.414c0.012-1.774,0.022-3.549,0.033-5.295c0.004-1.748,0.008-3.468,0.012-5.132
			c0.004-3.331,0.008-6.439,0.011-9.104c0.018-2.668,0.032-4.891,0.043-6.446C-860.558,269.338-860.546,268.448-860.546,268.448z"/>
	</g>
	<g display="inline">
		<path fill="#FAF8CF" d="M-902.347,320.663c0,0-0.237,0.27-0.623,0.752c-0.396,0.474-0.926,1.176-1.552,2.008
			c-0.289,0.436-0.636,0.879-0.952,1.381c-0.331,0.492-0.657,1.022-0.978,1.578c-0.353,0.537-0.606,1.149-0.93,1.734
			c-0.292,0.599-0.549,1.226-0.792,1.853c-0.188,0.642-0.487,1.26-0.586,1.912c-0.066,0.323-0.139,0.642-0.219,0.956
			c-0.088,0.313-0.083,0.635-0.128,0.945c-0.037,0.313-0.062,0.62-0.108,0.922c-0.016,0.303,0.001,0.599,0,0.889
			c0.002,0.58-0.014,1.137,0.086,1.64c0.079,0.504,0.112,0.982,0.184,1.399c0.105,0.411,0.196,0.77,0.271,1.064
			c0.144,0.601,0.216,0.957,0.216,0.957s-0.186-0.299-0.493-0.846c-0.15-0.278-0.333-0.616-0.542-1.004
			c-0.169-0.404-0.314-0.881-0.48-1.403c-0.072-0.263-0.193-0.531-0.233-0.824s-0.083-0.597-0.126-0.909
			c-0.038-0.313-0.094-0.637-0.118-0.969c-0.001-0.332,0.018-0.672,0.027-1.019c-0.006-0.697,0.103-1.404,0.252-2.117
			c0.099-0.728,0.396-1.406,0.593-2.117c0.28-0.678,0.578-1.351,0.908-1.987c0.352-0.626,0.705-1.24,1.109-1.787
			c0.373-0.57,0.794-1.074,1.2-1.543c0.384-0.486,0.823-0.881,1.193-1.27C-903.611,321.36-902.347,320.663-902.347,320.663z"/>
	</g>
	<g display="inline">
		<path fill="#FAF8CF" d="M-897.321,178.653c0,0,1.487-1.283,4.084-2.645c1.292-0.69,2.856-1.4,4.607-1.983
			c0.874-0.292,1.792-0.57,2.743-0.78c0.953-0.205,1.933-0.381,2.925-0.491c0.994-0.099,1.999-0.125,2.989-0.092
			c0.991,0.019,1.964,0.182,2.893,0.367c1.859,0.404,3.508,1.163,4.74,2.03c0.303,0.228,0.605,0.422,0.863,0.647
			c0.25,0.232,0.487,0.452,0.711,0.659c0.434,0.422,0.754,0.845,1.032,1.167c0.49,0.712,0.745,1.12,0.745,1.12
			s-0.39-0.305-1.027-0.839c-0.348-0.237-0.75-0.541-1.229-0.851c-0.489-0.299-1.042-0.617-1.67-0.91
			c-0.628-0.289-1.324-0.555-2.074-0.778c-0.748-0.23-1.563-0.374-2.401-0.512c-0.423-0.055-0.856-0.091-1.294-0.128
			c-0.442-0.001-0.884-0.046-1.335-0.041c-0.9-0.009-1.82,0.04-2.736,0.149c-0.92,0.078-1.839,0.221-2.738,0.392
			c-0.897,0.189-1.791,0.346-2.642,0.576c-1.71,0.423-3.294,0.91-4.654,1.349C-895.501,177.953-897.321,178.652-897.321,178.653z"/>
	</g>
	<g display="inline">
		<path fill="#FAF8CF" d="M-811.155,214.218c0,0,0.667,0.135,1.561,0.614c0.451,0.23,0.946,0.566,1.437,0.993
			c0.225,0.238,0.493,0.45,0.687,0.754c0.225,0.272,0.388,0.609,0.548,0.949c0.074,0.172,0.096,0.374,0.142,0.559
			c0.054,0.186,0.063,0.378,0.042,0.575c-0.016,0.192-0.004,0.391-0.065,0.567c-0.066,0.173-0.132,0.345-0.196,0.513
			c-0.115,0.344-0.383,0.564-0.559,0.819c-0.19,0.245-0.446,0.385-0.645,0.552c-0.393,0.344-0.819,0.458-1.076,0.595
			c-0.27,0.117-0.425,0.173-0.425,0.173s0.114-0.123,0.314-0.338c0.101-0.101,0.223-0.223,0.363-0.364
			c0.15-0.127,0.29-0.298,0.432-0.486c0.133-0.192,0.327-0.365,0.446-0.589c0.097-0.232,0.283-0.443,0.333-0.695
			c0.033-0.122,0.066-0.246,0.101-0.371c0.029-0.125-0.003-0.256,0.011-0.382c0.016-0.127,0.007-0.256-0.042-0.385
			c-0.041-0.128-0.05-0.26-0.109-0.386c-0.115-0.254-0.219-0.515-0.401-0.748c-0.146-0.247-0.348-0.469-0.523-0.693
			c-0.39-0.427-0.781-0.82-1.141-1.143C-810.64,214.654-811.155,214.218-811.155,214.218z"/>
	</g>
	<g display="inline">
		<path fill="#FAF8CF" d="M-829.655,213.115c0,0-0.884,0.629-2.162,1.479c-0.323,0.206-0.651,0.464-1.02,0.69
			c-0.352,0.248-0.723,0.51-1.106,0.78c-0.371,0.28-0.766,0.556-1.134,0.863c-0.38,0.296-0.762,0.595-1.108,0.925
			c-0.383,0.298-0.688,0.656-1.025,0.979c-0.329,0.331-0.592,0.688-0.889,1.02c-0.215,0.369-0.481,0.706-0.681,1.054
			c-0.146,0.364-0.354,0.7-0.482,1.035c-0.089,0.341-0.197,0.661-0.295,0.955c-0.081,0.293-0.088,0.56-0.134,0.784
			c-0.072,0.449-0.13,0.727-0.13,0.727s-0.107-0.237-0.266-0.69c-0.064-0.227-0.202-0.508-0.235-0.841
			c-0.031-0.333-0.063-0.721-0.068-1.152c0.018-0.424,0.121-0.878,0.222-1.367c0.14-0.469,0.346-0.951,0.577-1.44
			c0.296-0.435,0.547-0.951,0.919-1.359c0.361-0.418,0.733-0.848,1.16-1.198c0.413-0.375,0.851-0.708,1.303-1.001
			c0.433-0.325,0.918-0.538,1.355-0.794c0.903-0.458,1.783-0.795,2.559-1.007C-830.751,213.106-829.655,213.115-829.655,213.115z"/>
	</g>
	<g display="inline">
		<path fill="#FAF8CF" d="M-813.488,231.625c0,0,0.262,0.12,0.688,0.388c0.425,0.268,1.027,0.667,1.693,1.225
			c0.329,0.283,0.681,0.599,1.029,0.957c0.333,0.373,0.717,0.742,1.029,1.198c0.343,0.431,0.657,0.909,0.937,1.423
			c0.302,0.499,0.495,1.074,0.728,1.622c0.12,0.59,0.351,1.157,0.35,1.761c0.023,0.297,0.041,0.592,0.054,0.883
			c-0.016,0.29-0.069,0.576-0.103,0.856c-0.051,0.277-0.046,0.561-0.144,0.815c-0.091,0.254-0.181,0.503-0.268,0.745
			c-0.096,0.237-0.156,0.481-0.272,0.69c-0.126,0.203-0.247,0.399-0.363,0.588c-0.244,0.367-0.418,0.734-0.679,0.98
			c-0.242,0.258-0.452,0.482-0.626,0.667c-0.348,0.365-0.554,0.56-0.554,0.56s0.142-0.256,0.4-0.68
			c0.131-0.209,0.289-0.463,0.47-0.755c0.198-0.279,0.292-0.667,0.478-1.034c0.083-0.189,0.169-0.385,0.258-0.588
			c0.081-0.206,0.115-0.435,0.178-0.659c0.057-0.225,0.115-0.456,0.175-0.692c0.06-0.235,0.045-0.488,0.072-0.736
			c0.013-0.25,0.048-0.503,0.046-0.759c-0.032-0.256-0.061-0.515-0.082-0.776c-0.001-0.528-0.231-1.033-0.339-1.554
			c-0.204-0.497-0.36-1.018-0.631-1.483c-0.127-0.237-0.252-0.472-0.376-0.705c-0.131-0.229-0.285-0.443-0.424-0.661
			c-0.56-0.87-1.192-1.616-1.741-2.254c-0.567-0.62-1.045-1.15-1.414-1.482C-813.281,231.822-813.488,231.625-813.488,231.625z"/>
	</g>
	<g display="inline">
		<path fill="#FAF8CF" d="M-878.655,279.485c0,0-0.047,1.883-0.117,4.707c-0.042,1.408-0.031,3.053-0.019,4.809
			c0.023,1.756,0.065,3.627,0.211,5.486c0.06,0.93,0.154,1.855,0.271,2.762c0.128,0.904,0.262,1.792,0.457,2.634
			c0.211,0.834,0.406,1.65,0.711,2.369c0.276,0.733,0.648,1.37,1.066,1.89c0.226,0.242,0.434,0.49,0.688,0.651
			c0.228,0.208,0.486,0.326,0.735,0.437c0.499,0.208,0.991,0.271,1.392,0.249c0.406,0.025,0.718-0.076,0.937-0.102
			c0.219-0.037,0.335-0.058,0.335-0.058s-0.111,0.038-0.32,0.11c-0.213,0.056-0.512,0.224-0.937,0.242
			c-0.414,0.073-0.946,0.072-1.528-0.091c-0.593-0.146-1.198-0.527-1.719-1.063c-0.508-0.542-0.964-1.213-1.315-1.971
			c-0.383-0.749-0.658-1.583-0.898-2.452c-0.229-0.872-0.426-1.78-0.559-2.711c-0.132-0.93-0.242-1.877-0.312-2.825
			c-0.128-1.897-0.154-3.794-0.093-5.568c0.051-1.774,0.206-3.423,0.337-4.833c0.131-1.411,0.329-2.577,0.446-3.395
			C-878.755,279.947-878.655,279.485-878.655,279.485z"/>
	</g>
	<g display="inline">
		<path fill="#FAF8CF" d="M-889.927,270.819c0,0,0.417,0.496,0.803,1.377c0.187,0.44,0.383,0.971,0.504,1.563
			c0.146,0.59,0.186,1.243,0.192,1.899c-0.046,0.655-0.133,1.318-0.357,1.902c-0.108,0.293-0.212,0.575-0.372,0.815
			c-0.148,0.244-0.267,0.483-0.445,0.662c-0.159,0.188-0.313,0.353-0.448,0.494c-0.152,0.128-0.296,0.228-0.409,0.311
			c-0.229,0.163-0.362,0.245-0.362,0.245s0.079-0.139,0.217-0.381c0.07-0.114,0.156-0.252,0.253-0.411
			c0.076-0.172,0.16-0.362,0.26-0.56c0.112-0.191,0.159-0.436,0.253-0.665c0.1-0.229,0.134-0.497,0.207-0.756
			c0.086-0.257,0.078-0.548,0.14-0.823c0.043-0.281,0.042-0.576,0.064-0.865c0.032-1.168-0.114-2.361-0.246-3.271
			C-889.825,271.434-889.927,270.819-889.927,270.819z"/>
	</g>
	<g display="inline">
		<path fill="#FAF8CF" d="M-928.939,270.819c0,0,0.418,0.496,0.806,1.377c0.188,0.44,0.385,0.971,0.506,1.564
			c0.146,0.589,0.186,1.244,0.193,1.9c-0.046,0.656-0.134,1.319-0.361,1.904c-0.108,0.293-0.212,0.574-0.373,0.815
			c-0.148,0.244-0.269,0.482-0.448,0.661c-0.16,0.188-0.314,0.352-0.45,0.493c-0.153,0.128-0.297,0.227-0.41,0.31
			c-0.23,0.162-0.363,0.244-0.363,0.244s0.08-0.139,0.218-0.381c0.071-0.113,0.157-0.252,0.255-0.41
			c0.077-0.172,0.162-0.362,0.262-0.56c0.112-0.19,0.161-0.435,0.255-0.665c0.101-0.229,0.136-0.495,0.209-0.755
			c0.087-0.257,0.079-0.548,0.141-0.823c0.044-0.281,0.042-0.576,0.065-0.865c0.033-1.169-0.114-2.362-0.249-3.272
			C-928.836,271.434-928.939,270.819-928.939,270.819z"/>
	</g>
	<g display="inline">
		<path fill="#FAF8CF" d="M-1093.372,256.944c0,0-0.646-0.054-1.555-0.048c-0.227,0.02-0.472,0.014-0.724,0.046
			c-0.254,0.018-0.514,0.065-0.776,0.117c-0.267,0.037-0.518,0.151-0.776,0.227c-0.244,0.113-0.5,0.21-0.705,0.383
			c-0.242,0.123-0.412,0.335-0.606,0.514c-0.171,0.2-0.317,0.426-0.476,0.634c-0.105,0.243-0.227,0.472-0.343,0.695
			c-0.083,0.241-0.162,0.47-0.234,0.681c-0.175,0.423-0.206,0.813-0.298,1.076c-0.08,0.27-0.125,0.424-0.125,0.424
			s-0.033-0.155-0.073-0.433c-0.019-0.276-0.136-0.683-0.068-1.169c0.021-0.244,0.032-0.515,0.084-0.796
			c0.08-0.276,0.164-0.573,0.271-0.875c0.165-0.277,0.3-0.597,0.525-0.861c0.242-0.252,0.469-0.534,0.781-0.716
			c0.291-0.216,0.623-0.337,0.944-0.466c0.326-0.096,0.659-0.17,0.975-0.188c0.317-0.036,0.622-0.022,0.905,0.009
			c0.285,0.011,0.544,0.086,0.784,0.13C-1093.909,256.569-1093.372,256.944-1093.372,256.944z"/>
	</g>
</g>
</svg>
