<?xml version="1.0" encoding="utf-8"?>
<!-- Generator: Adobe Illustrator 16.0.0, SVG Export Plug-In . SVG Version: 6.00 Build 0)  -->
<!DOCTYPE svg PUBLIC "-//W3C//DTD SVG 1.1//EN" "http://www.w3.org/Graphics/SVG/1.1/DTD/svg11.dtd">
<svg version="1.1" id="Layer_1" xmlns="http://www.w3.org/2000/svg" xmlns:xlink="http://www.w3.org/1999/xlink" x="0px" y="0px"
	 width="2644px" height="1340px" viewBox="-979.5 -357.5 2644 1340" enable-background="new -979.5 -357.5 2644 1340"
	 xml:space="preserve">
<path fill="#246D5F" d="M-156.178,464.932"/>
<line fill="none" stroke="#11212F" stroke-width="0.5" stroke-miterlimit="10" x1="-206.292" y1="495.814" x2="-156.178" y2="464.932"/>
<line fill="none" stroke="#11212F" stroke-width="0.5" stroke-miterlimit="10" x1="-908.893" y1="924.887" x2="-223.42" y2="506.275"/>
<line fill="none" stroke="#11212F" stroke-width="0.5" stroke-miterlimit="10" x1="412.345" y1="263.297" x2="1233.885" y2="-238.405"/>
<line fill="none" stroke="#11212F" stroke-width="0.5" stroke-miterlimit="10" x1="789.746" y1="264.349" x2="1611.283" y2="-238.408"/>
<line fill="none" stroke="#11212F" stroke-width="0.5" stroke-miterlimit="10" x1="-356.07" y1="915.525" x2="294.768" y2="518.068"/>
<line fill="none" stroke="#11212F" stroke-width="0.5" stroke-miterlimit="10" x1="-6.474" y1="265.751" x2="815.066" y2="-235.951"/>
<line fill="none" stroke="#11212F" stroke-width="0.5" stroke-miterlimit="10" x1="371.625" y1="161.885" x2="1025.418" y2="-237.376"/>
<line fill="none" stroke="#11212F" stroke-width="0.5" stroke-miterlimit="10" x1="-962.007" y1="855.17" x2="-140.468" y2="352.043"/>
<line fill="none" stroke="#11212F" stroke-width="0.5" stroke-miterlimit="10" x1="9.444" y1="497.521" x2="57.896" y2="467.932"/>
<line fill="none" stroke="#11212F" stroke-width="0.5" stroke-miterlimit="10" x1="-681.303" y1="919.35" x2="-7.55" y2="507.898"/>
<line fill="none" stroke="#11212F" stroke-width="0.5" stroke-miterlimit="10" x1="255.238" y1="188.197" x2="1076.779" y2="-313.501"/>
<line fill="none" stroke="#11212F" stroke-width="0.5" stroke-miterlimit="10" x1="578.819" y1="203.17" x2="1400.36" y2="-298.531"/>
<path fill="#246D5F" d="M-223.42,506.275"/>
<line fill="none" stroke="#11212F" stroke-width="0.5" stroke-miterlimit="10" x1="430.815" y1="435.816" x2="464.764" y2="415.105"/>
<line fill="none" stroke="#11212F" stroke-width="0.5" stroke-miterlimit="10" x1="-134.915" y1="451.828" x2="-88.432" y2="423.182"/>
<line fill="none" stroke="#11212F" stroke-width="0.5" stroke-miterlimit="10" x1="78.892" y1="455.109" x2="140.236" y2="417.647"/>
<g>
	<path fill="none" stroke="#1AB7AE" stroke-width="2" stroke-miterlimit="10" d="M131.176,341.46
		c-1.081,5.96-20.999,22.399-46.204,15.196c-31.468-8.988-21.001-68.403-28.402-82.005c-3.609-6.626-15.901-17.647-32.257-2.8
		c-4.524,4.114-6.428,8.074-8.251,11.801l-0.625,74.798H-6.55v-92.46l22.587-13.649l0.024,20.129
		c1.957-2.988,9.815-11.026,14.705-14.221c10.65-6.947,21.877-6.064,25.003-5.599c3.122,0.478,9.74,1.898,13.798,5
		c7.606,5.802,13.804,13.603,15.405,33c1.093,13.196,2.183,47.729,12.994,54.405C112.992,354.328,131.176,341.46,131.176,341.46z"/>
</g>
<g>
	<path fill="none" stroke="#1AB7AE" stroke-width="2" stroke-miterlimit="10" d="M234.756,344.534
		c-9.702-6.846-9.086-22.521-9.367-36.729c0,0,0-42.655,0-49.836v-6.486l-21.135,13.667c-9.143-7.799-21.03-12.537-33.976-12.537
		c-28.91,0-52.332,23.428-52.332,52.333c0,28.937,23.422,53.505,52.332,53.505c14.208,0,27.132-6.808,36.551-16.051
		c2.346,6.8,6.62,11.968,14.417,14.188c26.176,7.487,46.873-9.602,47.984-15.783C269.229,340.805,249.738,355.115,234.756,344.534z
		 M182.659,347.502c-22.062,0-39.952-17.897-39.952-39.954c0-27.184,17.891-39.977,39.952-39.977c7.955,0,15.344,2.315,21.571,6.331
		l-0.134,34.752c0,11.094-0.356,22.32,1.988,31.25C199.492,344.692,191.408,347.502,182.659,347.502z"/>
	<path fill="none" stroke="#1AB7AE" stroke-width="2" stroke-miterlimit="10" d="M219.21,255.356"/>
</g>
<g>
	<path fill="none" stroke="#1AB7AE" stroke-width="2" stroke-miterlimit="10" d="M431.475,251.484
		c-0.546-0.52,4.128-16.651-3.031-41.749c-14.432-50.598-68.44-34.255-89.41-24.401c-15.223,7.154-57.624,34.735-57.624,34.735
		c-0.071,28.677-0.043,61.358,0.442,71.45c0.684,14.381-0.2,43.415,15.266,53.648c14.522,9.621,32.752-3.535,32.752-3.535
		c-1.069,5.872-20.88,22.648-45.566,14.979c-33.994-10.561-27.409-66.974-26.896-88.468c0.186-7.611,0.028-20.353-0.228-33.466
		l-31.791,16.807l5.964-4.491c8.908-8.466,17.432-16.234,25.57-23.304c-0.471-18.971-1.055-35.903-1.055-35.903l25.784-16.006
		c0,0-0.099,13.54-0.185,31.627c80.024-62.214,138.068-50.091,149.114,2.765C436.736,235.622,430.968,250.535,431.475,251.484z"/>
</g>
<g>
	<path fill="none" stroke="#1AB7AE" stroke-width="2" stroke-miterlimit="10" d="M440.841,344.534
		c-9.694-6.846-9.085-22.521-9.366-36.729c0,0,0-42.655,0-49.836v-6.486l-21.132,13.667c-9.142-7.799-21.033-12.537-33.981-12.537
		c-28.905,0-52.328,23.428-52.328,52.333c0,28.937,23.423,53.505,52.328,53.505c14.214,0,27.136-6.808,36.554-16.051
		c2.345,6.8,6.617,11.968,14.416,14.188c26.179,7.487,46.874-9.602,47.986-15.783C475.319,340.805,455.823,355.115,440.841,344.534z
		 M388.745,347.502c-22.06,0-39.948-17.897-39.948-39.954c0-27.184,17.89-39.977,39.948-39.977c7.958,0,15.343,2.315,21.569,6.331
		l-0.129,34.752c0,11.094-0.359,22.32,1.986,31.25C405.58,344.692,397.494,347.502,388.745,347.502z"/>
	<path fill="none" stroke="#1AB7AE" stroke-width="2" stroke-miterlimit="10" d="M425.297,255.356"/>
</g>
<g>
	<g>
		<path fill="none" stroke="#1AB7AE" stroke-width="2" stroke-miterlimit="10" d="M565.488,317.519
			c1.202,2.475,2.077,8.362,2.105,11.332c0.034,4.001-0.658,8.981-3.216,12.404c-2.591,3.401-6.155,6.347-10.758,8.859
			c-4.575,2.485-10.036,4.45-16.305,5.902c-6.313,1.463-13.165,2.201-20.578,2.26c-6.251,0.036-11.854-0.425-16.914-1.396
			c-5.027-0.97-9.327-2.399-12.9-4.229c-3.59-1.824-6.364-4.025-8.317-6.651c-1.979-2.601-2.987-5.516-3.015-8.708
			c0-2.112,0.365-4.083,1.249-5.823c4.65-9.22,15.542-8.911,18.075-8.827c6.765,0.236,14.956,6.832,9.143,13.648
			c-1.861,2.188-7.073,1.285-7.838,4.343c-0.825,3.172,0.886,7.255,5.763,10.31c2.957,1.826,7.378,2.34,12.471,2.31
			c3.074-0.026,12.468-0.538,17.159-6.339c1.4-1.742,3.539-6.078,3.381-11.423c-0.054-3.368-1.667-9.559-4.159-12.533
			c-2.503-2.937-7.32-6.815-15.691-9.931c-8.319-3.098-21.66-4.246-28.1-9.376c-10.757-8.589-11.271-18.616-11.062-22.905
			c0.209-3.989,1.218-7.709,3.776-11.109c2.57-3.398,6.164-6.338,10.737-8.851c4.6-2.515,10.055-4.488,16.329-5.939
			c6.318-1.425,13.176-2.201,20.581-2.231c6.254-0.051,11.858,0.406,16.89,1.403c5.027,0.973,9.353,2.369,12.913,4.196
			c3.609,1.833,6.376,4.052,8.328,6.654c1.98,2.599,2.988,5.516,2.988,8.738c0.033,2.115-0.39,4.055-1.25,5.796
			c-0.822,1.774-2.01,3.285-3.503,4.572c-1.492,1.251-3.321,2.254-5.493,2.944c-2.161,0.709-6.52,1.229-9.079,1.338
			c-3.801,0.146-10.012-0.855-12.182-3.758c-1.687-2.258-1.986-8.201,2.858-10.706c3.621-1.881,7.143-0.339,7.91-3.396
			c0.785-3.171-0.782-7.412-5.624-10.438c-2.958-1.857-7.38-2.346-12.468-2.313c-3.081,0-12.499,0.508-17.166,6.341
			c-1.401,1.737-3.531,6.05-3.41,11.421c0.091,3.372,0.736,7.196,3.231,10.133c2.495,2.94,13.925,4.748,22.185,8.06
			C539.479,295.566,556.544,299.039,565.488,317.519z"/>
	</g>
</g>
<g>
	<path fill="none" stroke="#1AB7AE" stroke-width="2" stroke-miterlimit="10" d="M716.164,341.578
		c-1.075,5.923-20.859,22.243-45.884,15.1c-31.246-8.933-20.853-67.937-28.206-81.443c-3.579-6.581-15.788-17.526-32.032-2.781
		c-4.493,4.085-6.384,8.017-8.191,11.72l-0.437,74.235l-23.15,0.042V203.332l23.032-13.703l0.555,83.437
		c1.931-2.963,9.739-10.951,14.607-14.122c10.576-6.899,21.722-6.023,24.825-5.557c3.102,0.471,9.664,1.883,13.702,4.96
		c7.547,5.764,13.699,13.51,15.294,32.775c1.08,13.102,2.165,47.397,12.902,54.026C698.102,354.352,716.164,341.578,716.164,341.578
		z"/>
</g>
<g>
	<path fill="none" stroke="#1AB7AE" stroke-width="2" stroke-miterlimit="10" d="M820.16,344.016
		c-9.699-6.848-9.082-22.523-9.366-36.734c0,0,0-42.653,0-49.836l0.102-5.853l-21.236,13.034
		c-9.145-7.798-21.03-12.534-33.979-12.534c-28.91,0-52.332,23.426-52.332,52.33c0,28.938,23.422,53.506,52.332,53.506
		c14.212,0,27.139-6.806,36.554-16.049c2.346,6.799,6.621,11.966,14.412,14.182c26.182,7.496,46.88-9.599,47.988-15.78
		C854.635,340.282,835.146,354.597,820.16,344.016z M768.061,346.98c-22.053,0-39.947-17.896-39.947-39.957
		c0-27.181,17.896-39.975,39.947-39.975c7.961,0,15.345,2.316,21.572,6.331l-0.13,34.753c0,11.093-0.359,22.318,1.987,31.246
		C784.897,344.177,776.817,346.98,768.061,346.98z"/>
	<path fill="none" stroke="#1AB7AE" stroke-width="2" stroke-miterlimit="10" d="M804.617,254.834"/>
</g>
<g>
	<path fill="none" stroke="#1AB7AE" stroke-width="2" stroke-miterlimit="10" d="M-124.553,504.596
		c-9.704-6.839-9.083-22.507-9.363-36.713c0,0,0-42.616,0-49.789v-6.484l-0.021-63.382l-21.223,12.86l0.118,64.178
		c-9.129-7.792-21.015-12.525-33.955-12.525c-28.88,0-52.292,23.409-52.292,52.297c0,28.908,23.607,53.463,52.49,53.463
		c14.203,0,26.921-6.803,36.333-16.041c2.34,6.797,6.613,11.955,14.407,14.178c26.161,7.477,46.838-9.596,47.947-15.769
		C-90.112,500.872-109.583,515.169-124.553,504.596z M-176.622,507.547c-22.045,0-39.917-17.869-39.917-39.911
		c0-22.078,17.874-39.947,39.917-39.947c7.953,0,15.333,2.308,21.557,6.327l-0.128,34.721c0,11.089-0.36,22.304,1.982,31.231
		C-159.797,504.746-167.872,507.547-176.622,507.547z"/>
</g>
<g>
	<path fill="none" stroke="#1AB7AE" stroke-width="2" stroke-miterlimit="10" d="M-72.768,413.811c0,0,0.487,5.22,0.5,26.583
		c0.02,16.764-0.224,50.554,17.78,62.482c16.901,11.191,38.131-4.125,38.131-4.125c-1.235,6.842-24.315,26.384-53.062,17.454
		c-39.589-12.299-31.311-85.054-31.311-85.054L-72.768,413.811z"/>
	<path fill="none" stroke="#1AB7AE" stroke-width="2" stroke-miterlimit="10" d="M-69.217,385.232
		c-0.217,2.53-0.914,4.864-2.065,6.975c-1.168,2.11-2.653,3.891-4.472,5.347c-1.814,1.456-3.868,2.55-6.147,3.295
		c-2.275,0.738-4.685,0.996-7.214,0.779c-2.534-0.219-4.86-0.896-6.978-2.029c-2.116-1.112-3.925-2.55-5.423-4.297
		c-1.498-1.745-2.614-3.753-3.355-6.033c-0.738-2.285-1-4.691-0.774-7.229c0.216-2.523,0.891-4.847,2.016-6.958
		c1.123-2.117,2.583-3.938,4.363-5.479c1.781-1.536,3.818-2.688,6.104-3.465c2.282-0.768,4.688-1.048,7.22-0.828
		c2.534,0.214,4.856,0.91,6.974,2.075c2.109,1.16,3.932,2.651,5.46,4.473c1.532,1.819,2.682,3.878,3.458,6.154
		C-69.268,380.292-68.991,382.706-69.217,385.232z"/>
</g>
<g>
	<path fill="none" stroke="#1AB7AE" stroke-width="2" stroke-miterlimit="10" d="M89.13,505.178
		c-9.563-6.75-8.962-22.211-9.237-36.226c0,0,0-42.068,0-49.155v-6.397l-20.845,13.484c-9.018-7.688-20.746-12.367-33.515-12.367
		c-28.516,0-51.611,23.104-51.611,51.615c0,28.537,23.095,52.775,51.611,52.775c14.017,0,26.761-6.72,36.05-15.837
		c2.313,6.709,6.529,11.81,14.219,13.994c25.813,7.386,46.232-9.468,47.326-15.567C123.128,501.497,103.907,515.614,89.13,505.178z
		 M37.745,508.106c-21.757,0-39.402-17.652-39.402-39.413c0-26.811,17.646-39.427,39.402-39.427c7.845,0,15.132,2.288,21.277,6.249
		l-0.134,34.273c0,10.94-0.353,22.008,1.963,30.819C54.351,505.328,46.375,508.106,37.745,508.106z"/>
	<path fill="none" stroke="#1AB7AE" stroke-width="2" stroke-miterlimit="10" d="M73.796,417.221"/>
</g>
<g>
	<path fill="none" stroke="#1AB7AE" stroke-width="2" stroke-miterlimit="10" d="M260.795,501.723
		c-1.065,5.88-20.715,22.099-45.57,14.988c-31.04-8.868-20.711-67.462-28.009-80.883c-3.563-6.536-15.692-17.404-31.82-2.759
		c-4.458,4.056-6.338,7.957-8.135,11.645l-0.619,73.769h-21.687v-91.194l22.273-13.466l0.033,19.853
		c1.926-2.941,9.682-10.874,14.504-14.026c10.503-6.848,21.577-5.978,24.654-5.518c3.082,0.472,9.604,1.871,13.609,4.936
		c7.502,5.717,13.614,13.405,15.196,32.542c1.079,13.014,2.151,47.078,12.819,53.656
		C242.863,514.408,260.795,501.723,260.795,501.723z"/>
</g>
<g>
	<path fill="none" stroke="#1AB7AE" stroke-width="2" stroke-miterlimit="10" d="M336.584,496.626
		c-5.392,5.339-15.177,10.648-24.205,10.843c-19.982,0-34.325-15.005-36.532-34.383c-0.096,0-0.111-1.09,0,0
		c6.791,0.751,13.525,0.532,20.161-0.698c6.698-1.203,12.731-3.541,18.409-6.23c22.946-10.879,23.292-21.516,23.292-26.604
		c0-8.207-2.404-12.646-3.944-14.737c-1.539-2.124-3.804-4.028-6.797-5.673c-2.988-1.656-7.038-2.932-12.129-3.83
		c-4.608-0.814-9.025-1.12-13.22-0.925v-0.059c-28.623,0-51.793,23.203-51.793,51.828c0,28.626,23.17,51.823,51.793,51.823h1.371
		c31.975-2.202,42.18-25.401,42.129-31.952C345.118,486.028,341.983,491.314,336.584,496.626z M276.397,464.187
		c-1.355-18.877,15.861-29.104,21.072-31.453c4.958-2.222,13.27-2.33,16.305,0.701c2.103,2.096,5.588,8.39,0,17.479
		C307.868,460.515,276.741,469.086,276.397,464.187z"/>
</g>
<g>
	<path fill="none" stroke="#1AB7AE" stroke-width="2" stroke-miterlimit="10" d="M430.879,496.626
		c-5.402,5.339-15.177,10.648-24.208,10.843c-19.986,0-34.324-15.005-36.536-34.383c-0.089,0-0.116-1.09,0,0
		c6.792,0.751,13.531,0.532,20.155-0.698c6.71-1.203,12.738-3.541,18.419-6.23C431.654,455.278,432,444.642,432,439.553
		c0-8.207-2.406-12.646-3.941-14.737c-1.542-2.124-3.801-4.028-6.792-5.673c-2.997-1.656-7.05-2.932-12.142-3.83
		c-4.61-0.814-9.025-1.12-13.214-0.925v-0.059c-28.62,0-51.799,23.203-51.799,51.828c0,28.626,23.179,51.823,51.799,51.823h1.365
		c31.982-2.202,42.181-25.401,42.131-31.952C439.405,486.028,436.277,491.314,430.879,496.626z M370.687,464.187
		c-1.353-18.877,15.867-29.104,21.065-31.453c4.964-2.222,13.275-2.33,16.319,0.701c2.094,2.096,5.583,8.39,0,17.479
		C402.152,460.515,371.025,469.086,370.687,464.187z"/>
</g>
<g>
	<g>
		<path fill="none" stroke="#1AB7AE" stroke-width="2" stroke-miterlimit="10" d="M454.515,514.39
			c-11.382-8.645-11.86-18.574-12.116-25.875c-0.517-14.829,0-59.351,0-59.351l23.365-14.059c0,0-1.264,58.352,0,77.749
			c0.292,4.603,1.629,12.491,13.601,12.491c11.97,0,13.754-9.148,14.126-14.13c1.755-23.194,0-93.045,0-93.045l21.758-13.245
			v106.847c0,0,0.003,26.33,0.029,35.107c0.022,6.065-2.637,32.556-16.822,49.45c-15.993,19.021-35.307,27.109-43.165,30.641
			c-16.279,7.3-34.583,6.35-39.315,5.93c-13.926-1.209-34.121-9.461-34.252-31.123c-0.197-28.737,47.952-56.119,72.022-64.83
			c0.23,0.165-61.224,34.685-57.6,63.689c2.183,17.451,20.038,19.294,28.727,19.634c6.145,0.236,13.154-0.059,24.053-5.114
			c5.384-2.519,18.435-10.436,24.83-17.025c9.847-10.088,14.644-22.379,17-39.351c1.072-7.988,1.421-25.254,1.356-29.916
			c-2.406,6.565-11.731,10.645-22.532,10.645c-5.71,0-10.246-1.601-13.808-4.079"/>
	</g>
	<path fill="none" stroke="#1AB7AE" stroke-width="2" stroke-miterlimit="10" d="M441.531,429.692"/>
	<path fill="none" stroke="#1AB7AE" stroke-width="2" stroke-miterlimit="10" d="M518.645,382.562"/>
</g>
</svg>
